<?xml version="1.0" standalone="yes"?>

<svg version="1.1" viewBox="0.0 0.0 960.0 720.0" fill="none" stroke="none" stroke-linecap="square" stroke-miterlimit="10" xmlns="http://www.w3.org/2000/svg" xmlns:xlink="http://www.w3.org/1999/xlink"><clipPath id="p.0"><path d="m0 0l960.0 0l0 720.0l-960.0 0l0 -720.0z" clip-rule="nonzero"></path></clipPath><g clip-path="url(#p.0)"><path fill="#000000" fill-opacity="0.0" d="m0 0l960.0 0l0 720.0l-960.0 0z" fill-rule="evenodd"></path><path fill="#c9daf8" d="m239.13387 193.91339l481.7323 0l0 162.61417l-481.7323 0z" fill-rule="evenodd"></path><path stroke="#a4c2f4" stroke-width="1.0" stroke-linejoin="round" stroke-linecap="butt" d="m239.13387 193.91339l481.7323 0l0 162.61417l-481.7323 0z" fill-rule="evenodd"></path><path fill="#000000" d="m425.76724 216.9934l0 -10.734375l4.765625 0q1.4375 0 2.1875 0.296875q0.75 0.28125 1.1875 1.015625q0.453125 0.734375 0.453125 1.609375q0 1.140625 -0.75 1.9375q-0.734375 0.78125 -2.28125 0.984375q0.5625 0.28125 0.859375 0.546875q0.625 0.5625 1.1875 1.421875l1.859375 2.921875l-1.78125 0l-1.421875 -2.234375q-0.625 -0.96875 -1.03125 -1.46875q-0.40625 -0.515625 -0.71875 -0.71875q-0.3125 -0.21875 -0.640625 -0.296875q-0.25 -0.046875 -0.796875 -0.046875l-1.65625 0l0 4.765625l-1.421875 0zm1.421875 -6.0l3.0625 0q0.96875 0 1.515625 -0.203125q0.5625 -0.203125 0.84375 -0.640625q0.28125 -0.4375 0.28125 -0.96875q0 -0.75 -0.5625 -1.234375q-0.546875 -0.5 -1.734375 -0.5l-3.40625 0l0 3.546875zm14.303009 3.5l1.359375 0.15625q-0.3125 1.203125 -1.1875 1.859375q-0.875 0.65625 -2.234375 0.65625q-1.703125 0 -2.703125 -1.046875q-1.0 -1.046875 -1.0 -2.953125q0 -1.953125 1.015625 -3.03125q1.015625 -1.09375 2.625 -1.09375q1.5625 0 2.546875 1.0625q0.984375 1.0625 0.984375 2.984375q0 0.125 0 0.359375l-5.8125 0q0.078125 1.28125 0.71875 1.96875q0.65625 0.671875 1.640625 0.671875q0.71875 0 1.234375 -0.375q0.515625 -0.390625 0.8125 -1.21875zm-4.328125 -2.140625l4.34375 0q-0.09375 -0.984375 -0.5 -1.46875q-0.625 -0.765625 -1.625 -0.765625q-0.921875 0 -1.546875 0.609375q-0.609375 0.609375 -0.671875 1.625zm12.260498 4.640625l0 -1.140625q-0.921875 1.3125 -2.46875 1.3125q-0.6875 0 -1.296875 -0.265625q-0.59375 -0.265625 -0.890625 -0.65625q-0.28125 -0.40625 -0.390625 -0.984375q-0.09375 -0.375 -0.09375 -1.21875l0 -4.828125l1.328125 0l0 4.3125q0 1.03125 0.078125 1.390625q0.125 0.53125 0.515625 0.828125q0.40625 0.296875 1.0 0.296875q0.59375 0 1.109375 -0.296875q0.53125 -0.3125 0.75 -0.828125q0.21875 -0.53125 0.21875 -1.53125l0 -4.171875l1.3125 0l0 7.78125l-1.171875 0zm2.5260925 -2.328125l1.296875 -0.203125q0.109375 0.78125 0.609375 1.203125q0.5 0.421875 1.40625 0.421875q0.90625 0 1.34375 -0.359375q0.4375 -0.375 0.4375 -0.875q0 -0.453125 -0.390625 -0.703125q-0.265625 -0.1875 -1.34375 -0.453125q-1.453125 -0.359375 -2.015625 -0.625q-0.546875 -0.28125 -0.84375 -0.75q-0.28125 -0.46875 -0.28125 -1.046875q0 -0.515625 0.234375 -0.953125q0.234375 -0.453125 0.640625 -0.734375q0.3125 -0.234375 0.84375 -0.390625q0.53125 -0.15625 1.140625 -0.15625q0.90625 0 1.59375 0.265625q0.703125 0.265625 1.03125 0.71875q0.328125 0.4375 0.453125 1.203125l-1.28125 0.171875q-0.09375 -0.609375 -0.515625 -0.9375q-0.421875 -0.34375 -1.1875 -0.34375q-0.90625 0 -1.296875 0.3125q-0.390625 0.296875 -0.390625 0.703125q0 0.25 0.15625 0.453125q0.171875 0.21875 0.515625 0.359375q0.1875 0.0625 1.15625 0.328125q1.40625 0.375 1.953125 0.609375q0.5625 0.234375 0.875 0.703125q0.3125 0.453125 0.3125 1.125q0 0.65625 -0.390625 1.234375q-0.375 0.578125 -1.109375 0.90625q-0.71875 0.3125 -1.640625 0.3125q-1.515625 0 -2.3125 -0.625q-0.78125 -0.625 -1.0 -1.875zm12.921875 1.375q-0.734375 0.609375 -1.40625 0.875q-0.671875 0.25 -1.453125 0.25q-1.28125 0 -1.96875 -0.625q-0.6875 -0.625 -0.6875 -1.59375q0 -0.578125 0.25 -1.046875q0.265625 -0.46875 0.6875 -0.75q0.421875 -0.296875 0.953125 -0.4375q0.375 -0.109375 1.171875 -0.203125q1.59375 -0.1875 2.34375 -0.453125q0.015625 -0.265625 0.015625 -0.34375q0 -0.8125 -0.375 -1.140625q-0.515625 -0.4375 -1.5 -0.4375q-0.9375 0 -1.390625 0.328125q-0.4375 0.3125 -0.640625 1.140625l-1.296875 -0.171875q0.171875 -0.828125 0.578125 -1.328125q0.40625 -0.515625 1.171875 -0.78125q0.765625 -0.28125 1.765625 -0.28125q1.0 0 1.609375 0.234375q0.625 0.234375 0.921875 0.59375q0.296875 0.34375 0.40625 0.890625q0.0625 0.34375 0.0625 1.21875l0 1.75q0 1.84375 0.078125 2.328125q0.09375 0.484375 0.34375 0.9375l-1.375 0q-0.203125 -0.40625 -0.265625 -0.953125zm-0.109375 -2.953125q-0.71875 0.296875 -2.15625 0.5q-0.8125 0.125 -1.15625 0.265625q-0.328125 0.140625 -0.515625 0.421875q-0.171875 0.28125 -0.171875 0.625q0 0.53125 0.390625 0.890625q0.40625 0.34375 1.171875 0.34375q0.765625 0 1.359375 -0.328125q0.59375 -0.34375 0.875 -0.921875q0.203125 -0.4375 0.203125 -1.3125l0 -0.484375zm4.401123 3.90625l-1.21875 0l0 -10.734375l1.3125 0l0 3.828125q0.84375 -1.046875 2.140625 -1.046875q0.71875 0 1.359375 0.296875q0.640625 0.28125 1.046875 0.8125q0.421875 0.515625 0.65625 1.265625q0.234375 0.734375 0.234375 1.578125q0 2.0 -1.0 3.09375q-0.984375 1.078125 -2.375 1.078125q-1.375 0 -2.15625 -1.140625l0 0.96875zm-0.015625 -3.953125q0 1.40625 0.390625 2.03125q0.609375 1.015625 1.671875 1.015625q0.875 0 1.5 -0.75q0.625 -0.75 0.625 -2.234375q0 -1.53125 -0.609375 -2.25q-0.59375 -0.734375 -1.453125 -0.734375q-0.859375 0 -1.5 0.75q-0.625 0.75 -0.625 2.171875zm6.9167175 3.953125l0 -10.734375l1.328125 0l0 10.734375l-1.328125 0zm8.61554 -2.5l1.359375 0.15625q-0.3125 1.203125 -1.1875 1.859375q-0.875 0.65625 -2.234375 0.65625q-1.703125 0 -2.703125 -1.046875q-1.0 -1.046875 -1.0 -2.953125q0 -1.953125 1.015625 -3.03125q1.015625 -1.09375 2.625 -1.09375q1.5625 0 2.546875 1.0625q0.984375 1.0625 0.984375 2.984375q0 0.125 0 0.359375l-5.8125 0q0.078125 1.28125 0.71875 1.96875q0.65625 0.671875 1.640625 0.671875q0.71875 0 1.234375 -0.375q0.515625 -0.390625 0.8125 -1.21875zm-4.328125 -2.140625l4.34375 0q-0.09375 -0.984375 -0.5 -1.46875q-0.625 -0.765625 -1.625 -0.765625q-0.921875 0 -1.546875 0.609375q-0.609375 0.609375 -0.671875 1.625zm11.2074585 4.640625l0 -7.78125l1.1875 0l0 1.1875q0.453125 -0.828125 0.84375 -1.09375q0.390625 -0.265625 0.84375 -0.265625q0.671875 0 1.359375 0.421875l-0.453125 1.21875q-0.484375 -0.28125 -0.96875 -0.28125q-0.4375 0 -0.78125 0.265625q-0.34375 0.25 -0.484375 0.71875q-0.21875 0.703125 -0.21875 1.53125l0 4.078125l-1.328125 0zm4.411865 -3.890625q0 -2.15625 1.203125 -3.203125q1.0 -0.859375 2.4375 -0.859375q1.609375 0 2.625 1.046875q1.015625 1.046875 1.015625 2.90625q0 1.5 -0.453125 2.359375q-0.4375 0.859375 -1.3125 1.34375q-0.859375 0.46875 -1.875 0.46875q-1.625 0 -2.640625 -1.046875q-1.0 -1.046875 -1.0 -3.015625zm1.359375 0q0 1.5 0.640625 2.25q0.65625 0.734375 1.640625 0.734375q0.984375 0 1.640625 -0.75q0.65625 -0.75 0.65625 -2.28125q0 -1.4375 -0.65625 -2.171875q-0.65625 -0.75 -1.640625 -0.75q-0.984375 0 -1.640625 0.734375q-0.640625 0.734375 -0.640625 2.234375zm12.385498 3.890625l0 -1.140625q-0.921875 1.3125 -2.46875 1.3125q-0.6875 0 -1.296875 -0.265625q-0.59375 -0.265625 -0.890625 -0.65625q-0.28125 -0.40625 -0.390625 -0.984375q-0.09375 -0.375 -0.09375 -1.21875l0 -4.828125l1.328125 0l0 4.3125q0 1.03125 0.078125 1.390625q0.125 0.53125 0.515625 0.828125q0.40625 0.296875 1.0 0.296875q0.59375 0 1.109375 -0.296875q0.53125 -0.3125 0.75 -0.828125q0.21875 -0.53125 0.21875 -1.53125l0 -4.171875l1.3125 0l0 7.78125l-1.171875 0zm5.932373 -1.171875l0.1875 1.15625q-0.5625 0.125 -1.0 0.125q-0.71875 0 -1.125 -0.234375q-0.390625 -0.234375 -0.546875 -0.59375q-0.15625 -0.375 -0.15625 -1.5625l0 -4.46875l-0.96875 0l0 -1.03125l0.96875 0l0 -1.921875l1.3125 -0.796875l0 2.71875l1.328125 0l0 1.03125l-1.328125 0l0 4.546875q0 0.5625 0.0625 0.734375q0.078125 0.15625 0.234375 0.25q0.15625 0.09375 0.4375 0.09375q0.234375 0 0.59375 -0.046875zm1.1969604 -8.046875l0 -1.515625l1.3125 0l0 1.515625l-1.3125 0zm0 9.21875l0 -7.78125l1.3125 0l0 7.78125l-1.3125 0zm3.2405396 0l0 -7.78125l1.1875 0l0 1.109375q0.859375 -1.28125 2.484375 -1.28125q0.703125 0 1.28125 0.25q0.59375 0.25 0.890625 0.671875q0.296875 0.40625 0.40625 0.96875q0.078125 0.359375 0.078125 1.28125l0 4.78125l-1.328125 0l0 -4.734375q0 -0.796875 -0.15625 -1.1875q-0.140625 -0.40625 -0.53125 -0.640625q-0.390625 -0.25 -0.921875 -0.25q-0.84375 0 -1.453125 0.53125q-0.609375 0.53125 -0.609375 2.03125l0 4.25l-1.328125 0zm13.479248 -2.5l1.359375 0.15625q-0.3125 1.203125 -1.1875 1.859375q-0.875 0.65625 -2.234375 0.65625q-1.703125 0 -2.703125 -1.046875q-1.0 -1.046875 -1.0 -2.953125q0 -1.953125 1.015625 -3.03125q1.015625 -1.09375 2.625 -1.09375q1.5625 0 2.546875 1.0625q0.984375 1.0625 0.984375 2.984375q0 0.125 0 0.359375l-5.8125 0q0.078125 1.28125 0.71875 1.96875q0.65625 0.671875 1.640625 0.671875q0.71875 0 1.234375 -0.375q0.515625 -0.390625 0.8125 -1.21875zm-4.328125 -2.140625l4.34375 0q-0.09375 -0.984375 -0.5 -1.46875q-0.625 -0.765625 -1.625 -0.765625q-0.921875 0 -1.546875 0.609375q-0.609375 0.609375 -0.671875 1.625z" fill-rule="nonzero"></path><path fill="#d9ead3" d="m254.77953 240.00787l127.81102 0l0 70.4252l-127.81102 0z" fill-rule="evenodd"></path><path stroke="#b6d7a8" stroke-width="1.0" stroke-linejoin="round" stroke-linecap="butt" d="m254.77953 240.00787l127.81102 0l0 70.4252l-127.81102 0z" fill-rule="evenodd"></path><path fill="#000000" d="m283.42563 263.08786l0 -10.73436l1.40625 0l0 10.73436l-1.40625 0zm3.6500854 0l0 -7.7812347l1.1875 0l0 1.1093597q0.859375 -1.2812347 2.484375 -1.2812347q0.703125 0 1.28125 0.25q0.59375 0.25 0.890625 0.67185974q0.296875 0.40625 0.40625 0.96875q0.078125 0.359375 0.078125 1.28125l0 4.78125l-1.328125 0l0 -4.734375q0 -0.796875 -0.15625 -1.1875q-0.140625 -0.40625 -0.53125 -0.640625q-0.390625 -0.25 -0.921875 -0.25q-0.84375 0 -1.453125 0.53125q-0.609375 0.53125 -0.609375 2.03125l0 4.25l-1.328125 0zm11.041748 -1.171875l0.1875 1.15625q-0.5625 0.125 -1.0 0.125q-0.71875 0 -1.125 -0.234375q-0.390625 -0.234375 -0.546875 -0.59375q-0.15625 -0.375 -0.15625 -1.5625l0 -4.46875l-0.96875 0l0 -1.0312347l0.96875 0l0 -1.921875l1.3125 -0.796875l0 2.71875l1.328125 0l0 1.0312347l-1.328125 0l0 4.546875q0 0.5625 0.0625 0.734375q0.078125 0.15625 0.234375 0.25q0.15625 0.09375 0.4375 0.09375q0.234375 0 0.59375 -0.046875zm6.5094604 -1.328125l1.359375 0.15625q-0.3125 1.203125 -1.1875 1.859375q-0.875 0.65625 -2.234375 0.65625q-1.703125 0 -2.703125 -1.046875q-1.0 -1.046875 -1.0 -2.953125q0 -1.953125 1.015625 -3.03125q1.015625 -1.0937347 2.625 -1.0937347q1.5625 0 2.546875 1.0624847q0.984375 1.0625 0.984375 2.984375q0 0.125 0 0.359375l-5.8125 0q0.078125 1.28125 0.71875 1.96875q0.65625 0.671875 1.640625 0.671875q0.71875 0 1.234375 -0.375q0.515625 -0.390625 0.8125 -1.21875zm-4.328125 -2.140625l4.34375 0q-0.09375 -0.984375 -0.5 -1.46875q-0.625 -0.765625 -1.625 -0.765625q-0.921875 0 -1.546875 0.609375q-0.609375 0.609375 -0.671875 1.625zm7.135498 4.640625l0 -7.7812347l1.1875 0l0 1.1874847q0.453125 -0.82810974 0.84375 -1.0937347q0.390625 -0.265625 0.84375 -0.265625q0.671875 0 1.359375 0.421875l-0.453125 1.2187347q-0.484375 -0.28125 -0.96875 -0.28125q-0.4375 0 -0.78125 0.265625q-0.34375 0.25 -0.484375 0.71875q-0.21875 0.703125 -0.21875 1.53125l0 4.078125l-1.328125 0zm4.8962708 0l0 -7.7812347l1.1875 0l0 1.1093597q0.859375 -1.2812347 2.484375 -1.2812347q0.703125 0 1.28125 0.25q0.59375 0.25 0.890625 0.67185974q0.296875 0.40625 0.40625 0.96875q0.078125 0.359375 0.078125 1.28125l0 4.78125l-1.328125 0l0 -4.734375q0 -0.796875 -0.15625 -1.1875q-0.140625 -0.40625 -0.53125 -0.640625q-0.390625 -0.25 -0.921875 -0.25q-0.84375 0 -1.453125 0.53125q-0.609375 0.53125 -0.609375 2.03125l0 4.25l-1.328125 0zm13.229218 -0.953125q-0.734375 0.609375 -1.40625 0.875q-0.671875 0.25 -1.453125 0.25q-1.28125 0 -1.96875 -0.625q-0.6875 -0.625 -0.6875 -1.59375q0 -0.578125 0.25 -1.046875q0.265625 -0.46875 0.6875 -0.75q0.421875 -0.296875 0.953125 -0.4375q0.375 -0.109375 1.171875 -0.203125q1.59375 -0.1875 2.34375 -0.453125q0.015625 -0.265625 0.015625 -0.34375q0 -0.8125 -0.375 -1.140625q-0.515625 -0.4375 -1.5 -0.4375q-0.9375 0 -1.390625 0.328125q-0.4375 0.3125 -0.640625 1.140625l-1.296875 -0.171875q0.171875 -0.828125 0.578125 -1.328125q0.40625 -0.51560974 1.171875 -0.78123474q0.765625 -0.28125 1.765625 -0.28125q1.0 0 1.609375 0.234375q0.625 0.234375 0.921875 0.59375q0.296875 0.34373474 0.40625 0.89060974q0.0625 0.34375 0.0625 1.21875l0 1.75q0 1.84375 0.078125 2.328125q0.09375 0.484375 0.34375 0.9375l-1.375 0q-0.203125 -0.40625 -0.265625 -0.953125zm-0.109375 -2.953125q-0.71875 0.296875 -2.15625 0.5q-0.8125 0.125 -1.15625 0.265625q-0.328125 0.140625 -0.515625 0.421875q-0.171875 0.28125 -0.171875 0.625q0 0.53125 0.390625 0.890625q0.40625 0.34375 1.171875 0.34375q0.765625 0 1.359375 -0.328125q0.59375 -0.34375 0.875 -0.921875q0.203125 -0.4375 0.203125 -1.3125l0 -0.484375zm3.151123 3.90625l0 -10.73436l1.328125 0l0 10.73436l-1.328125 0zm8.578125 0l-1.21875 0l0 -10.73436l1.3125 0l0 3.8281097q0.84375 -1.0468597 2.140625 -1.0468597q0.71875 0 1.359375 0.296875q0.640625 0.28125 1.046875 0.81248474q0.421875 0.515625 0.65625 1.265625q0.234375 0.734375 0.234375 1.578125q0 2.0 -1.0 3.09375q-0.984375 1.078125 -2.375 1.078125q-1.375 0 -2.15625 -1.140625l0 0.96875zm-0.015625 -3.953125q0 1.40625 0.390625 2.03125q0.609375 1.015625 1.671875 1.015625q0.875 0 1.5 -0.75q0.625 -0.75 0.625 -2.234375q0 -1.53125 -0.609375 -2.25q-0.59375 -0.734375 -1.453125 -0.734375q-0.859375 0 -1.5 0.75q-0.625 0.75 -0.625 2.171875zm12.057343 3.953125l0 -1.140625q-0.921875 1.3125 -2.46875 1.3125q-0.6875 0 -1.296875 -0.265625q-0.59375 -0.265625 -0.890625 -0.65625q-0.28125 -0.40625 -0.390625 -0.984375q-0.09375 -0.375 -0.09375 -1.21875l0 -4.8281097l1.328125 0l0 4.3124847q0 1.03125 0.078125 1.390625q0.125 0.53125 0.515625 0.828125q0.40625 0.296875 1.0 0.296875q0.59375 0 1.109375 -0.296875q0.53125 -0.3125 0.75 -0.828125q0.21875 -0.53125 0.21875 -1.53125l0 -4.1718597l1.3125 0l0 7.7812347l-1.171875 0zm5.932373 -1.171875l0.1875 1.15625q-0.5625 0.125 -1.0 0.125q-0.71875 0 -1.125 -0.234375q-0.390625 -0.234375 -0.546875 -0.59375q-0.15625 -0.375 -0.15625 -1.5625l0 -4.46875l-0.96875 0l0 -1.0312347l0.96875 0l0 -1.921875l1.3125 -0.796875l0 2.71875l1.328125 0l0 1.0312347l-1.328125 0l0 4.546875q0 0.5625 0.0625 0.734375q0.078125 0.15625 0.234375 0.25q0.15625 0.09375 0.4375 0.09375q0.234375 0 0.59375 -0.046875z" fill-rule="nonzero"></path><path fill="#000000" d="m276.8922 281.0879l0 -7.78125l1.1875 0l0 1.109375q0.859375 -1.28125 2.484375 -1.28125q0.703125 0 1.28125 0.25q0.59375 0.25 0.890625 0.671875q0.296875 0.40625 0.40625 0.96875q0.078125 0.359375 0.078125 1.28125l0 4.78125l-1.328125 0l0 -4.734375q0 -0.796875 -0.15625 -1.1875q-0.140625 -0.40625 -0.53125 -0.640625q-0.390625 -0.25 -0.921875 -0.25q-0.84375 0 -1.453125 0.53125q-0.609375 0.53125 -0.609375 2.03125l0 4.25l-1.328125 0zm7.6667175 -3.890625q0 -2.15625 1.203125 -3.203125q1.0 -0.859375 2.4375 -0.859375q1.609375 0 2.625 1.046875q1.015625 1.046875 1.015625 2.90625q0 1.5 -0.453125 2.359375q-0.4375 0.859375 -1.3125 1.34375q-0.859375 0.46875 -1.875 0.46875q-1.625 0 -2.640625 -1.046875q-1.0 -1.046875 -1.0 -3.015625zm1.359375 0q0 1.5 0.640625 2.25q0.65625 0.734375 1.640625 0.734375q0.984375 0 1.640625 -0.75q0.65625 -0.75 0.65625 -2.28125q0 -1.4375 -0.65625 -2.171875q-0.65625 -0.75 -1.640625 -0.75q-0.984375 0 -1.640625 0.734375q-0.640625 0.734375 -0.640625 2.234375zm7.276123 3.890625l0 -7.78125l1.1875 0l0 1.109375q0.859375 -1.28125 2.484375 -1.28125q0.703125 0 1.28125 0.25q0.59375 0.25 0.890625 0.671875q0.296875 0.40625 0.40625 0.96875q0.078125 0.359375 0.078125 1.28125l0 4.78125l-1.328125 0l0 -4.734375q0 -0.796875 -0.15625 -1.1875q-0.140625 -0.40625 -0.53125 -0.640625q-0.390625 -0.25 -0.921875 -0.25q-0.84375 0 -1.453125 0.53125q-0.609375 0.53125 -0.609375 2.03125l0 4.25l-1.328125 0zm7.6354675 -3.21875l0 -1.328125l4.0625 0l0 1.328125l-4.0625 0zm5.3806458 3.21875l0 -7.78125l1.1875 0l0 1.1875q0.453125 -0.828125 0.84375 -1.09375q0.390625 -0.265625 0.84375 -0.265625q0.671875 0 1.359375 0.421875l-0.453125 1.21875q-0.484375 -0.28125 -0.96875 -0.28125q-0.4375 0 -0.78125 0.265625q-0.34375 0.25 -0.484375 0.71875q-0.21875 0.703125 -0.21875 1.53125l0 4.078125l-1.328125 0zm10.224396 -2.5l1.359375 0.15625q-0.3125 1.203125 -1.1875 1.859375q-0.875 0.65625 -2.234375 0.65625q-1.703125 0 -2.703125 -1.046875q-1.0 -1.046875 -1.0 -2.953125q0 -1.953125 1.015625 -3.03125q1.015625 -1.09375 2.625 -1.09375q1.5625 0 2.546875 1.0625q0.984375 1.0625 0.984375 2.984375q0 0.125 0 0.359375l-5.8125 0q0.078125 1.28125 0.71875 1.96875q0.65625 0.671875 1.640625 0.671875q0.71875 0 1.234375 -0.375q0.515625 -0.390625 0.8125 -1.21875zm-4.328125 -2.140625l4.34375 0q-0.09375 -0.984375 -0.5 -1.46875q-0.625 -0.765625 -1.625 -0.765625q-0.921875 0 -1.546875 0.609375q-0.609375 0.609375 -0.671875 1.625zm12.260498 4.640625l0 -1.140625q-0.921875 1.3125 -2.46875 1.3125q-0.6875 0 -1.296875 -0.265625q-0.59375 -0.265625 -0.890625 -0.65625q-0.28125 -0.40625 -0.390625 -0.984375q-0.09375 -0.375 -0.09375 -1.21875l0 -4.828125l1.328125 0l0 4.3125q0 1.03125 0.078125 1.390625q0.125 0.53125 0.515625 0.828125q0.40625 0.296875 1.0 0.296875q0.59375 0 1.109375 -0.296875q0.53125 -0.3125 0.75 -0.828125q0.21875 -0.53125 0.21875 -1.53125l0 -4.171875l1.3125 0l0 7.78125l-1.171875 0zm2.5260925 -2.328125l1.296875 -0.203125q0.109375 0.78125 0.609375 1.203125q0.5 0.421875 1.40625 0.421875q0.90625 0 1.34375 -0.359375q0.4375 -0.375 0.4375 -0.875q0 -0.453125 -0.390625 -0.703125q-0.265625 -0.1875 -1.34375 -0.453125q-1.453125 -0.359375 -2.015625 -0.625q-0.546875 -0.28125 -0.84375 -0.75q-0.28125 -0.46875 -0.28125 -1.046875q0 -0.515625 0.234375 -0.953125q0.234375 -0.453125 0.640625 -0.734375q0.3125 -0.234375 0.84375 -0.390625q0.53125 -0.15625 1.140625 -0.15625q0.90625 0 1.59375 0.265625q0.703125 0.265625 1.03125 0.71875q0.328125 0.4375 0.453125 1.203125l-1.28125 0.171875q-0.09375 -0.609375 -0.515625 -0.9375q-0.421875 -0.34375 -1.1875 -0.34375q-0.90625 0 -1.296875 0.3125q-0.390625 0.296875 -0.390625 0.703125q0 0.25 0.15625 0.453125q0.171875 0.21875 0.515625 0.359375q0.1875 0.0625 1.15625 0.328125q1.40625 0.375 1.953125 0.609375q0.5625 0.234375 0.875 0.703125q0.3125 0.453125 0.3125 1.125q0 0.65625 -0.390625 1.234375q-0.375 0.578125 -1.109375 0.90625q-0.71875 0.3125 -1.640625 0.3125q-1.515625 0 -2.3125 -0.625q-0.78125 -0.625 -1.0 -1.875zm12.921875 1.375q-0.734375 0.609375 -1.40625 0.875q-0.671875 0.25 -1.453125 0.25q-1.28125 0 -1.96875 -0.625q-0.6875 -0.625 -0.6875 -1.59375q0 -0.578125 0.25 -1.046875q0.265625 -0.46875 0.6875 -0.75q0.421875 -0.296875 0.953125 -0.4375q0.375 -0.109375 1.171875 -0.203125q1.59375 -0.1875 2.34375 -0.453125q0.015625 -0.265625 0.015625 -0.34375q0 -0.8125 -0.375 -1.140625q-0.515625 -0.4375 -1.5 -0.4375q-0.9375 0 -1.390625 0.328125q-0.4375 0.3125 -0.640625 1.140625l-1.296875 -0.171875q0.171875 -0.828125 0.578125 -1.328125q0.40625 -0.515625 1.171875 -0.78125q0.765625 -0.28125 1.765625 -0.28125q1.0 0 1.609375 0.234375q0.625 0.234375 0.921875 0.59375q0.296875 0.34375 0.40625 0.890625q0.0625 0.34375 0.0625 1.21875l0 1.75q0 1.84375 0.078125 2.328125q0.09375 0.484375 0.34375 0.9375l-1.375 0q-0.203125 -0.40625 -0.265625 -0.953125zm-0.109375 -2.953125q-0.71875 0.296875 -2.15625 0.5q-0.8125 0.125 -1.15625 0.265625q-0.328125 0.140625 -0.515625 0.421875q-0.171875 0.28125 -0.171875 0.625q0 0.53125 0.390625 0.890625q0.40625 0.34375 1.171875 0.34375q0.765625 0 1.359375 -0.328125q0.59375 -0.34375 0.875 -0.921875q0.203125 -0.4375 0.203125 -1.3125l0 -0.484375zm4.401123 3.90625l-1.21875 0l0 -10.734375l1.3125 0l0 3.828125q0.84375 -1.046875 2.140625 -1.046875q0.71875 0 1.359375 0.296875q0.640625 0.28125 1.046875 0.8125q0.421875 0.515625 0.65625 1.265625q0.234375 0.734375 0.234375 1.578125q0 2.0 -1.0 3.09375q-0.984375 1.078125 -2.375 1.078125q-1.375 0 -2.15625 -1.140625l0 0.96875zm-0.015625 -3.953125q0 1.40625 0.390625 2.03125q0.609375 1.015625 1.671875 1.015625q0.875 0 1.5 -0.75q0.625 -0.75 0.625 -2.234375q0 -1.53125 -0.609375 -2.25q-0.59375 -0.734375 -1.453125 -0.734375q-0.859375 0 -1.5 0.75q-0.625 0.75 -0.625 2.171875zm6.9167175 3.953125l0 -10.734375l1.328125 0l0 10.734375l-1.328125 0zm8.61554 -2.5l1.359375 0.15625q-0.3125 1.203125 -1.1875 1.859375q-0.875 0.65625 -2.234375 0.65625q-1.703125 0 -2.703125 -1.046875q-1.0 -1.046875 -1.0 -2.953125q0 -1.953125 1.015625 -3.03125q1.015625 -1.09375 2.625 -1.09375q1.5625 0 2.546875 1.0625q0.984375 1.0625 0.984375 2.984375q0 0.125 0 0.359375l-5.8125 0q0.078125 1.28125 0.71875 1.96875q0.65625 0.671875 1.640625 0.671875q0.71875 0 1.234375 -0.375q0.515625 -0.390625 0.8125 -1.21875zm-4.328125 -2.140625l4.34375 0q-0.09375 -0.984375 -0.5 -1.46875q-0.625 -0.765625 -1.625 -0.765625q-0.921875 0 -1.546875 0.609375q-0.609375 0.609375 -0.671875 1.625z" fill-rule="nonzero"></path><path fill="#000000" d="m297.2472 299.0879l0 -7.78125l1.1875 0l0 1.1875q0.453125 -0.828125 0.84375 -1.09375q0.390625 -0.265625 0.84375 -0.265625q0.671875 0 1.359375 0.421875l-0.453125 1.21875q-0.484375 -0.28125 -0.96875 -0.28125q-0.4375 0 -0.78125 0.265625q-0.34375 0.25 -0.484375 0.71875q-0.21875 0.703125 -0.21875 1.53125l0 4.078125l-1.328125 0zm4.4118958 -3.890625q0 -2.15625 1.203125 -3.203125q1.0 -0.859375 2.4375 -0.859375q1.609375 0 2.625 1.046875q1.015625 1.046875 1.015625 2.90625q0 1.5 -0.453125 2.359375q-0.4375 0.859375 -1.3125 1.34375q-0.859375 0.46875 -1.875 0.46875q-1.625 0 -2.640625 -1.046875q-1.0 -1.046875 -1.0 -3.015625zm1.359375 0q0 1.5 0.640625 2.25q0.65625 0.734375 1.640625 0.734375q0.984375 0 1.640625 -0.75q0.65625 -0.75 0.65625 -2.28125q0 -1.4375 -0.65625 -2.171875q-0.65625 -0.75 -1.640625 -0.75q-0.984375 0 -1.640625 0.734375q-0.640625 0.734375 -0.640625 2.234375zm12.385468 3.890625l0 -1.140625q-0.921875 1.3125 -2.46875 1.3125q-0.6875 0 -1.296875 -0.265625q-0.59375 -0.265625 -0.890625 -0.65625q-0.28125 -0.40625 -0.390625 -0.984375q-0.09375 -0.375 -0.09375 -1.21875l0 -4.828125l1.328125 0l0 4.3125q0 1.03125 0.078125 1.390625q0.125 0.53125 0.515625 0.828125q0.40625 0.296875 1.0 0.296875q0.59375 0 1.109375 -0.296875q0.53125 -0.3125 0.75 -0.828125q0.21875 -0.53125 0.21875 -1.53125l0 -4.171875l1.3125 0l0 7.78125l-1.171875 0zm5.932373 -1.171875l0.1875 1.15625q-0.5625 0.125 -1.0 0.125q-0.71875 0 -1.125 -0.234375q-0.390625 -0.234375 -0.546875 -0.59375q-0.15625 -0.375 -0.15625 -1.5625l0 -4.46875l-0.96875 0l0 -1.03125l0.96875 0l0 -1.921875l1.3125 -0.796875l0 2.71875l1.328125 0l0 1.03125l-1.328125 0l0 4.546875q0 0.5625 0.0625 0.734375q0.078125 0.15625 0.234375 0.25q0.15625 0.09375 0.4375 0.09375q0.234375 0 0.59375 -0.046875zm1.1969604 -8.046875l0 -1.515625l1.3125 0l0 1.515625l-1.3125 0zm0 9.21875l0 -7.78125l1.3125 0l0 7.78125l-1.3125 0zm3.2405396 0l0 -7.78125l1.1875 0l0 1.109375q0.859375 -1.28125 2.484375 -1.28125q0.703125 0 1.28125 0.25q0.59375 0.25 0.890625 0.671875q0.296875 0.40625 0.40625 0.96875q0.078125 0.359375 0.078125 1.28125l0 4.78125l-1.328125 0l0 -4.734375q0 -0.796875 -0.15625 -1.1875q-0.140625 -0.40625 -0.53125 -0.640625q-0.390625 -0.25 -0.921875 -0.25q-0.84375 0 -1.453125 0.53125q-0.609375 0.53125 -0.609375 2.03125l0 4.25l-1.328125 0zm13.479218 -2.5l1.359375 0.15625q-0.3125 1.203125 -1.1875 1.859375q-0.875 0.65625 -2.234375 0.65625q-1.703125 0 -2.703125 -1.046875q-1.0 -1.046875 -1.0 -2.953125q0 -1.953125 1.015625 -3.03125q1.015625 -1.09375 2.625 -1.09375q1.5625 0 2.546875 1.0625q0.984375 1.0625 0.984375 2.984375q0 0.125 0 0.359375l-5.8125 0q0.078125 1.28125 0.71875 1.96875q0.65625 0.671875 1.640625 0.671875q0.71875 0 1.234375 -0.375q0.515625 -0.390625 0.8125 -1.21875zm-4.328125 -2.140625l4.34375 0q-0.09375 -0.984375 -0.5 -1.46875q-0.625 -0.765625 -1.625 -0.765625q-0.921875 0 -1.546875 0.609375q-0.609375 0.609375 -0.671875 1.625z" fill-rule="nonzero"></path><path fill="#d9ead3" d="m416.09448 240.00787l127.811035 0l0 70.4252l-127.811035 0z" fill-rule="evenodd"></path><path stroke="#b6d7a8" stroke-width="1.0" stroke-linejoin="round" stroke-linecap="butt" d="m416.09448 240.00787l127.811035 0l0 70.4252l-127.811035 0z" fill-rule="evenodd"></path><path fill="#000000" d="m444.74057 263.08786l0 -10.73436l1.40625 0l0 10.73436l-1.40625 0zm3.650116 0l0 -7.7812347l1.1875 0l0 1.1093597q0.859375 -1.2812347 2.484375 -1.2812347q0.703125 0 1.28125 0.25q0.59375 0.25 0.890625 0.67185974q0.296875 0.40625 0.40625 0.96875q0.078125 0.359375 0.078125 1.28125l0 4.78125l-1.328125 0l0 -4.734375q0 -0.796875 -0.15625 -1.1875q-0.140625 -0.40625 -0.53125 -0.640625q-0.390625 -0.25 -0.921875 -0.25q-0.84375 0 -1.453125 0.53125q-0.609375 0.53125 -0.609375 2.03125l0 4.25l-1.328125 0zm11.041718 -1.171875l0.1875 1.15625q-0.5625 0.125 -1.0 0.125q-0.71875 0 -1.125 -0.234375q-0.390625 -0.234375 -0.546875 -0.59375q-0.15625 -0.375 -0.15625 -1.5625l0 -4.46875l-0.96875 0l0 -1.0312347l0.96875 0l0 -1.921875l1.3125 -0.796875l0 2.71875l1.328125 0l0 1.0312347l-1.328125 0l0 4.546875q0 0.5625 0.0625 0.734375q0.078125 0.15625 0.234375 0.25q0.15625 0.09375 0.4375 0.09375q0.234375 0 0.59375 -0.046875zm6.509491 -1.328125l1.359375 0.15625q-0.3125 1.203125 -1.1875 1.859375q-0.875 0.65625 -2.234375 0.65625q-1.703125 0 -2.703125 -1.046875q-1.0 -1.046875 -1.0 -2.953125q0 -1.953125 1.015625 -3.03125q1.015625 -1.0937347 2.625 -1.0937347q1.5625 0 2.546875 1.0624847q0.984375 1.0625 0.984375 2.984375q0 0.125 0 0.359375l-5.8125 0q0.078125 1.28125 0.71875 1.96875q0.65625 0.671875 1.640625 0.671875q0.71875 0 1.234375 -0.375q0.515625 -0.390625 0.8125 -1.21875zm-4.328125 -2.140625l4.34375 0q-0.09375 -0.984375 -0.5 -1.46875q-0.625 -0.765625 -1.625 -0.765625q-0.921875 0 -1.546875 0.609375q-0.609375 0.609375 -0.671875 1.625zm7.1354675 4.640625l0 -7.7812347l1.1875 0l0 1.1874847q0.453125 -0.82810974 0.84375 -1.0937347q0.390625 -0.265625 0.84375 -0.265625q0.671875 0 1.359375 0.421875l-0.453125 1.2187347q-0.484375 -0.28125 -0.96875 -0.28125q-0.4375 0 -0.78125 0.265625q-0.34375 0.25 -0.484375 0.71875q-0.21875 0.703125 -0.21875 1.53125l0 4.078125l-1.328125 0zm4.8962708 0l0 -7.7812347l1.1875 0l0 1.1093597q0.859375 -1.2812347 2.484375 -1.2812347q0.703125 0 1.28125 0.25q0.59375 0.25 0.890625 0.67185974q0.296875 0.40625 0.40625 0.96875q0.078125 0.359375 0.078125 1.28125l0 4.78125l-1.328125 0l0 -4.734375q0 -0.796875 -0.15625 -1.1875q-0.140625 -0.40625 -0.53125 -0.640625q-0.390625 -0.25 -0.921875 -0.25q-0.84375 0 -1.453125 0.53125q-0.609375 0.53125 -0.609375 2.03125l0 4.25l-1.328125 0zm13.229248 -0.953125q-0.734375 0.609375 -1.40625 0.875q-0.671875 0.25 -1.453125 0.25q-1.28125 0 -1.96875 -0.625q-0.6875 -0.625 -0.6875 -1.59375q0 -0.578125 0.25 -1.046875q0.265625 -0.46875 0.6875 -0.75q0.421875 -0.296875 0.953125 -0.4375q0.375 -0.109375 1.171875 -0.203125q1.59375 -0.1875 2.34375 -0.453125q0.015625 -0.265625 0.015625 -0.34375q0 -0.8125 -0.375 -1.140625q-0.515625 -0.4375 -1.5 -0.4375q-0.9375 0 -1.390625 0.328125q-0.4375 0.3125 -0.640625 1.140625l-1.296875 -0.171875q0.171875 -0.828125 0.578125 -1.328125q0.40625 -0.51560974 1.171875 -0.78123474q0.765625 -0.28125 1.765625 -0.28125q1.0 0 1.609375 0.234375q0.625 0.234375 0.921875 0.59375q0.296875 0.34373474 0.40625 0.89060974q0.0625 0.34375 0.0625 1.21875l0 1.75q0 1.84375 0.078125 2.328125q0.09375 0.484375 0.34375 0.9375l-1.375 0q-0.203125 -0.40625 -0.265625 -0.953125zm-0.109375 -2.953125q-0.71875 0.296875 -2.15625 0.5q-0.8125 0.125 -1.15625 0.265625q-0.328125 0.140625 -0.515625 0.421875q-0.171875 0.28125 -0.171875 0.625q0 0.53125 0.390625 0.890625q0.40625 0.34375 1.171875 0.34375q0.765625 0 1.359375 -0.328125q0.59375 -0.34375 0.875 -0.921875q0.203125 -0.4375 0.203125 -1.3125l0 -0.484375zm3.1510925 3.90625l0 -10.73436l1.328125 0l0 10.73436l-1.328125 0zm8.578125 0l-1.21875 0l0 -10.73436l1.3125 0l0 3.8281097q0.84375 -1.0468597 2.140625 -1.0468597q0.71875 0 1.359375 0.296875q0.640625 0.28125 1.046875 0.81248474q0.421875 0.515625 0.65625 1.265625q0.234375 0.734375 0.234375 1.578125q0 2.0 -1.0 3.09375q-0.984375 1.078125 -2.375 1.078125q-1.375 0 -2.15625 -1.140625l0 0.96875zm-0.015625 -3.953125q0 1.40625 0.390625 2.03125q0.609375 1.015625 1.671875 1.015625q0.875 0 1.5 -0.75q0.625 -0.75 0.625 -2.234375q0 -1.53125 -0.609375 -2.25q-0.59375 -0.734375 -1.453125 -0.734375q-0.859375 0 -1.5 0.75q-0.625 0.75 -0.625 2.171875zm12.057373 3.953125l0 -1.140625q-0.921875 1.3125 -2.46875 1.3125q-0.6875 0 -1.296875 -0.265625q-0.59375 -0.265625 -0.890625 -0.65625q-0.28125 -0.40625 -0.390625 -0.984375q-0.09375 -0.375 -0.09375 -1.21875l0 -4.8281097l1.328125 0l0 4.3124847q0 1.03125 0.078125 1.390625q0.125 0.53125 0.515625 0.828125q0.40625 0.296875 1.0 0.296875q0.59375 0 1.109375 -0.296875q0.53125 -0.3125 0.75 -0.828125q0.21875 -0.53125 0.21875 -1.53125l0 -4.1718597l1.3125 0l0 7.7812347l-1.171875 0zm5.9323425 -1.171875l0.1875 1.15625q-0.5625 0.125 -1.0 0.125q-0.71875 0 -1.125 -0.234375q-0.390625 -0.234375 -0.546875 -0.59375q-0.15625 -0.375 -0.15625 -1.5625l0 -4.46875l-0.96875 0l0 -1.0312347l0.96875 0l0 -1.921875l1.3125 -0.796875l0 2.71875l1.328125 0l0 1.0312347l-1.328125 0l0 4.546875q0 0.5625 0.0625 0.734375q0.078125 0.15625 0.234375 0.25q0.15625 0.09375 0.4375 0.09375q0.234375 0 0.59375 -0.046875z" fill-rule="nonzero"></path><path fill="#000000" d="m438.20715 281.0879l0 -7.78125l1.1875 0l0 1.109375q0.859375 -1.28125 2.484375 -1.28125q0.703125 0 1.28125 0.25q0.59375 0.25 0.890625 0.671875q0.296875 0.40625 0.40625 0.96875q0.078125 0.359375 0.078125 1.28125l0 4.78125l-1.328125 0l0 -4.734375q0 -0.796875 -0.15625 -1.1875q-0.140625 -0.40625 -0.53125 -0.640625q-0.390625 -0.25 -0.921875 -0.25q-0.84375 0 -1.453125 0.53125q-0.609375 0.53125 -0.609375 2.03125l0 4.25l-1.328125 0zm7.666748 -3.890625q0 -2.15625 1.203125 -3.203125q1.0 -0.859375 2.4375 -0.859375q1.609375 0 2.625 1.046875q1.015625 1.046875 1.015625 2.90625q0 1.5 -0.453125 2.359375q-0.4375 0.859375 -1.3125 1.34375q-0.859375 0.46875 -1.875 0.46875q-1.625 0 -2.640625 -1.046875q-1.0 -1.046875 -1.0 -3.015625zm1.359375 0q0 1.5 0.640625 2.25q0.65625 0.734375 1.640625 0.734375q0.984375 0 1.640625 -0.75q0.65625 -0.75 0.65625 -2.28125q0 -1.4375 -0.65625 -2.171875q-0.65625 -0.75 -1.640625 -0.75q-0.984375 0 -1.640625 0.734375q-0.640625 0.734375 -0.640625 2.234375zm7.2760925 3.890625l0 -7.78125l1.1875 0l0 1.109375q0.859375 -1.28125 2.484375 -1.28125q0.703125 0 1.28125 0.25q0.59375 0.25 0.890625 0.671875q0.296875 0.40625 0.40625 0.96875q0.078125 0.359375 0.078125 1.28125l0 4.78125l-1.328125 0l0 -4.734375q0 -0.796875 -0.15625 -1.1875q-0.140625 -0.40625 -0.53125 -0.640625q-0.390625 -0.25 -0.921875 -0.25q-0.84375 0 -1.453125 0.53125q-0.609375 0.53125 -0.609375 2.03125l0 4.25l-1.328125 0zm7.635498 -3.21875l0 -1.328125l4.0625 0l0 1.328125l-4.0625 0zm5.3806458 3.21875l0 -7.78125l1.1875 0l0 1.1875q0.453125 -0.828125 0.84375 -1.09375q0.390625 -0.265625 0.84375 -0.265625q0.671875 0 1.359375 0.421875l-0.453125 1.21875q-0.484375 -0.28125 -0.96875 -0.28125q-0.4375 0 -0.78125 0.265625q-0.34375 0.25 -0.484375 0.71875q-0.21875 0.703125 -0.21875 1.53125l0 4.078125l-1.328125 0zm10.224396 -2.5l1.359375 0.15625q-0.3125 1.203125 -1.1875 1.859375q-0.875 0.65625 -2.234375 0.65625q-1.703125 0 -2.703125 -1.046875q-1.0 -1.046875 -1.0 -2.953125q0 -1.953125 1.015625 -3.03125q1.015625 -1.09375 2.625 -1.09375q1.5625 0 2.546875 1.0625q0.984375 1.0625 0.984375 2.984375q0 0.125 0 0.359375l-5.8125 0q0.078125 1.28125 0.71875 1.96875q0.65625 0.671875 1.640625 0.671875q0.71875 0 1.234375 -0.375q0.515625 -0.390625 0.8125 -1.21875zm-4.328125 -2.140625l4.34375 0q-0.09375 -0.984375 -0.5 -1.46875q-0.625 -0.765625 -1.625 -0.765625q-0.921875 0 -1.546875 0.609375q-0.609375 0.609375 -0.671875 1.625zm12.260468 4.640625l0 -1.140625q-0.921875 1.3125 -2.46875 1.3125q-0.6875 0 -1.296875 -0.265625q-0.59375 -0.265625 -0.890625 -0.65625q-0.28125 -0.40625 -0.390625 -0.984375q-0.09375 -0.375 -0.09375 -1.21875l0 -4.828125l1.328125 0l0 4.3125q0 1.03125 0.078125 1.390625q0.125 0.53125 0.515625 0.828125q0.40625 0.296875 1.0 0.296875q0.59375 0 1.109375 -0.296875q0.53125 -0.3125 0.75 -0.828125q0.21875 -0.53125 0.21875 -1.53125l0 -4.171875l1.3125 0l0 7.78125l-1.171875 0zm2.526123 -2.328125l1.296875 -0.203125q0.109375 0.78125 0.609375 1.203125q0.5 0.421875 1.40625 0.421875q0.90625 0 1.34375 -0.359375q0.4375 -0.375 0.4375 -0.875q0 -0.453125 -0.390625 -0.703125q-0.265625 -0.1875 -1.34375 -0.453125q-1.453125 -0.359375 -2.015625 -0.625q-0.546875 -0.28125 -0.84375 -0.75q-0.28125 -0.46875 -0.28125 -1.046875q0 -0.515625 0.234375 -0.953125q0.234375 -0.453125 0.640625 -0.734375q0.3125 -0.234375 0.84375 -0.390625q0.53125 -0.15625 1.140625 -0.15625q0.90625 0 1.59375 0.265625q0.703125 0.265625 1.03125 0.71875q0.328125 0.4375 0.453125 1.203125l-1.28125 0.171875q-0.09375 -0.609375 -0.515625 -0.9375q-0.421875 -0.34375 -1.1875 -0.34375q-0.90625 0 -1.296875 0.3125q-0.390625 0.296875 -0.390625 0.703125q0 0.25 0.15625 0.453125q0.171875 0.21875 0.515625 0.359375q0.1875 0.0625 1.15625 0.328125q1.40625 0.375 1.953125 0.609375q0.5625 0.234375 0.875 0.703125q0.3125 0.453125 0.3125 1.125q0 0.65625 -0.390625 1.234375q-0.375 0.578125 -1.109375 0.90625q-0.71875 0.3125 -1.640625 0.3125q-1.515625 0 -2.3125 -0.625q-0.78125 -0.625 -1.0 -1.875zm12.921875 1.375q-0.734375 0.609375 -1.40625 0.875q-0.671875 0.25 -1.453125 0.25q-1.28125 0 -1.96875 -0.625q-0.6875 -0.625 -0.6875 -1.59375q0 -0.578125 0.25 -1.046875q0.265625 -0.46875 0.6875 -0.75q0.421875 -0.296875 0.953125 -0.4375q0.375 -0.109375 1.171875 -0.203125q1.59375 -0.1875 2.34375 -0.453125q0.015625 -0.265625 0.015625 -0.34375q0 -0.8125 -0.375 -1.140625q-0.515625 -0.4375 -1.5 -0.4375q-0.9375 0 -1.390625 0.328125q-0.4375 0.3125 -0.640625 1.140625l-1.296875 -0.171875q0.171875 -0.828125 0.578125 -1.328125q0.40625 -0.515625 1.171875 -0.78125q0.765625 -0.28125 1.765625 -0.28125q1.0 0 1.609375 0.234375q0.625 0.234375 0.921875 0.59375q0.296875 0.34375 0.40625 0.890625q0.0625 0.34375 0.0625 1.21875l0 1.75q0 1.84375 0.078125 2.328125q0.09375 0.484375 0.34375 0.9375l-1.375 0q-0.203125 -0.40625 -0.265625 -0.953125zm-0.109375 -2.953125q-0.71875 0.296875 -2.15625 0.5q-0.8125 0.125 -1.15625 0.265625q-0.328125 0.140625 -0.515625 0.421875q-0.171875 0.28125 -0.171875 0.625q0 0.53125 0.390625 0.890625q0.40625 0.34375 1.171875 0.34375q0.765625 0 1.359375 -0.328125q0.59375 -0.34375 0.875 -0.921875q0.203125 -0.4375 0.203125 -1.3125l0 -0.484375zm4.4010925 3.90625l-1.21875 0l0 -10.734375l1.3125 0l0 3.828125q0.84375 -1.046875 2.140625 -1.046875q0.71875 0 1.359375 0.296875q0.640625 0.28125 1.046875 0.8125q0.421875 0.515625 0.65625 1.265625q0.234375 0.734375 0.234375 1.578125q0 2.0 -1.0 3.09375q-0.984375 1.078125 -2.375 1.078125q-1.375 0 -2.15625 -1.140625l0 0.96875zm-0.015625 -3.953125q0 1.40625 0.390625 2.03125q0.609375 1.015625 1.671875 1.015625q0.875 0 1.5 -0.75q0.625 -0.75 0.625 -2.234375q0 -1.53125 -0.609375 -2.25q-0.59375 -0.734375 -1.453125 -0.734375q-0.859375 0 -1.5 0.75q-0.625 0.75 -0.625 2.171875zm6.9167175 3.953125l0 -10.734375l1.328125 0l0 10.734375l-1.328125 0zm8.61554 -2.5l1.359375 0.15625q-0.3125 1.203125 -1.1875 1.859375q-0.875 0.65625 -2.234375 0.65625q-1.703125 0 -2.703125 -1.046875q-1.0 -1.046875 -1.0 -2.953125q0 -1.953125 1.015625 -3.03125q1.015625 -1.09375 2.625 -1.09375q1.5625 0 2.546875 1.0625q0.984375 1.0625 0.984375 2.984375q0 0.125 0 0.359375l-5.8125 0q0.078125 1.28125 0.71875 1.96875q0.65625 0.671875 1.640625 0.671875q0.71875 0 1.234375 -0.375q0.515625 -0.390625 0.8125 -1.21875zm-4.328125 -2.140625l4.34375 0q-0.09375 -0.984375 -0.5 -1.46875q-0.625 -0.765625 -1.625 -0.765625q-0.921875 0 -1.546875 0.609375q-0.609375 0.609375 -0.671875 1.625z" fill-rule="nonzero"></path><path fill="#000000" d="m458.56213 299.0879l0 -7.78125l1.1875 0l0 1.1875q0.453125 -0.828125 0.84375 -1.09375q0.390625 -0.265625 0.84375 -0.265625q0.671875 0 1.359375 0.421875l-0.453125 1.21875q-0.484375 -0.28125 -0.96875 -0.28125q-0.4375 0 -0.78125 0.265625q-0.34375 0.25 -0.484375 0.71875q-0.21875 0.703125 -0.21875 1.53125l0 4.078125l-1.328125 0zm4.4118958 -3.890625q0 -2.15625 1.203125 -3.203125q1.0 -0.859375 2.4375 -0.859375q1.609375 0 2.625 1.046875q1.015625 1.046875 1.015625 2.90625q0 1.5 -0.453125 2.359375q-0.4375 0.859375 -1.3125 1.34375q-0.859375 0.46875 -1.875 0.46875q-1.625 0 -2.640625 -1.046875q-1.0 -1.046875 -1.0 -3.015625zm1.359375 0q0 1.5 0.640625 2.25q0.65625 0.734375 1.640625 0.734375q0.984375 0 1.640625 -0.75q0.65625 -0.75 0.65625 -2.28125q0 -1.4375 -0.65625 -2.171875q-0.65625 -0.75 -1.640625 -0.75q-0.984375 0 -1.640625 0.734375q-0.640625 0.734375 -0.640625 2.234375zm12.385498 3.890625l0 -1.140625q-0.921875 1.3125 -2.46875 1.3125q-0.6875 0 -1.296875 -0.265625q-0.59375 -0.265625 -0.890625 -0.65625q-0.28125 -0.40625 -0.390625 -0.984375q-0.09375 -0.375 -0.09375 -1.21875l0 -4.828125l1.328125 0l0 4.3125q0 1.03125 0.078125 1.390625q0.125 0.53125 0.515625 0.828125q0.40625 0.296875 1.0 0.296875q0.59375 0 1.109375 -0.296875q0.53125 -0.3125 0.75 -0.828125q0.21875 -0.53125 0.21875 -1.53125l0 -4.171875l1.3125 0l0 7.78125l-1.171875 0zm5.9323425 -1.171875l0.1875 1.15625q-0.5625 0.125 -1.0 0.125q-0.71875 0 -1.125 -0.234375q-0.390625 -0.234375 -0.546875 -0.59375q-0.15625 -0.375 -0.15625 -1.5625l0 -4.46875l-0.96875 0l0 -1.03125l0.96875 0l0 -1.921875l1.3125 -0.796875l0 2.71875l1.328125 0l0 1.03125l-1.328125 0l0 4.546875q0 0.5625 0.0625 0.734375q0.078125 0.15625 0.234375 0.25q0.15625 0.09375 0.4375 0.09375q0.234375 0 0.59375 -0.046875zm1.196991 -8.046875l0 -1.515625l1.3125 0l0 1.515625l-1.3125 0zm0 9.21875l0 -7.78125l1.3125 0l0 7.78125l-1.3125 0zm3.240509 0l0 -7.78125l1.1875 0l0 1.109375q0.859375 -1.28125 2.484375 -1.28125q0.703125 0 1.28125 0.25q0.59375 0.25 0.890625 0.671875q0.296875 0.40625 0.40625 0.96875q0.078125 0.359375 0.078125 1.28125l0 4.78125l-1.328125 0l0 -4.734375q0 -0.796875 -0.15625 -1.1875q-0.140625 -0.40625 -0.53125 -0.640625q-0.390625 -0.25 -0.921875 -0.25q-0.84375 0 -1.453125 0.53125q-0.609375 0.53125 -0.609375 2.03125l0 4.25l-1.328125 0zm13.479248 -2.5l1.359375 0.15625q-0.3125 1.203125 -1.1875 1.859375q-0.875 0.65625 -2.234375 0.65625q-1.703125 0 -2.703125 -1.046875q-1.0 -1.046875 -1.0 -2.953125q0 -1.953125 1.015625 -3.03125q1.015625 -1.09375 2.625 -1.09375q1.5625 0 2.546875 1.0625q0.984375 1.0625 0.984375 2.984375q0 0.125 0 0.359375l-5.8125 0q0.078125 1.28125 0.71875 1.96875q0.65625 0.671875 1.640625 0.671875q0.71875 0 1.234375 -0.375q0.515625 -0.390625 0.8125 -1.21875zm-4.328125 -2.140625l4.34375 0q-0.09375 -0.984375 -0.5 -1.46875q-0.625 -0.765625 -1.625 -0.765625q-0.921875 0 -1.546875 0.609375q-0.609375 0.609375 -0.671875 1.625z" fill-rule="nonzero"></path><path fill="#d9ead3" d="m577.4094 240.00787l127.811035 0l0 70.4252l-127.811035 0z" fill-rule="evenodd"></path><path stroke="#b6d7a8" stroke-width="1.0" stroke-linejoin="round" stroke-linecap="butt" d="m577.4094 240.00787l127.811035 0l0 70.4252l-127.811035 0z" fill-rule="evenodd"></path><path fill="#000000" d="m606.05554 263.08786l0 -10.73436l1.40625 0l0 10.73436l-1.40625 0zm3.6500854 0l0 -7.7812347l1.1875 0l0 1.1093597q0.859375 -1.2812347 2.484375 -1.2812347q0.703125 0 1.28125 0.25q0.59375 0.25 0.890625 0.67185974q0.296875 0.40625 0.40625 0.96875q0.078125 0.359375 0.078125 1.28125l0 4.78125l-1.328125 0l0 -4.734375q0 -0.796875 -0.15625 -1.1875q-0.140625 -0.40625 -0.53125 -0.640625q-0.390625 -0.25 -0.921875 -0.25q-0.84375 0 -1.453125 0.53125q-0.609375 0.53125 -0.609375 2.03125l0 4.25l-1.328125 0zm11.041748 -1.171875l0.1875 1.15625q-0.5625 0.125 -1.0 0.125q-0.71875 0 -1.125 -0.234375q-0.390625 -0.234375 -0.546875 -0.59375q-0.15625 -0.375 -0.15625 -1.5625l0 -4.46875l-0.96875 0l0 -1.0312347l0.96875 0l0 -1.921875l1.3125 -0.796875l0 2.71875l1.328125 0l0 1.0312347l-1.328125 0l0 4.546875q0 0.5625 0.0625 0.734375q0.078125 0.15625 0.234375 0.25q0.15625 0.09375 0.4375 0.09375q0.234375 0 0.59375 -0.046875zm6.5094604 -1.328125l1.359375 0.15625q-0.3125 1.203125 -1.1875 1.859375q-0.875 0.65625 -2.234375 0.65625q-1.703125 0 -2.703125 -1.046875q-1.0 -1.046875 -1.0 -2.953125q0 -1.953125 1.015625 -3.03125q1.015625 -1.0937347 2.625 -1.0937347q1.5625 0 2.546875 1.0624847q0.984375 1.0625 0.984375 2.984375q0 0.125 0 0.359375l-5.8125 0q0.078125 1.28125 0.71875 1.96875q0.65625 0.671875 1.640625 0.671875q0.71875 0 1.234375 -0.375q0.515625 -0.390625 0.8125 -1.21875zm-4.328125 -2.140625l4.34375 0q-0.09375 -0.984375 -0.5 -1.46875q-0.625 -0.765625 -1.625 -0.765625q-0.921875 0 -1.546875 0.609375q-0.609375 0.609375 -0.671875 1.625zm7.135498 4.640625l0 -7.7812347l1.1875 0l0 1.1874847q0.453125 -0.82810974 0.84375 -1.0937347q0.390625 -0.265625 0.84375 -0.265625q0.671875 0 1.359375 0.421875l-0.453125 1.2187347q-0.484375 -0.28125 -0.96875 -0.28125q-0.4375 0 -0.78125 0.265625q-0.34375 0.25 -0.484375 0.71875q-0.21875 0.703125 -0.21875 1.53125l0 4.078125l-1.328125 0zm4.89624 0l0 -7.7812347l1.1875 0l0 1.1093597q0.859375 -1.2812347 2.484375 -1.2812347q0.703125 0 1.28125 0.25q0.59375 0.25 0.890625 0.67185974q0.296875 0.40625 0.40625 0.96875q0.078125 0.359375 0.078125 1.28125l0 4.78125l-1.328125 0l0 -4.734375q0 -0.796875 -0.15625 -1.1875q-0.140625 -0.40625 -0.53125 -0.640625q-0.390625 -0.25 -0.921875 -0.25q-0.84375 0 -1.453125 0.53125q-0.609375 0.53125 -0.609375 2.03125l0 4.25l-1.328125 0zm13.229248 -0.953125q-0.734375 0.609375 -1.40625 0.875q-0.671875 0.25 -1.453125 0.25q-1.28125 0 -1.96875 -0.625q-0.6875 -0.625 -0.6875 -1.59375q0 -0.578125 0.25 -1.046875q0.265625 -0.46875 0.6875 -0.75q0.421875 -0.296875 0.953125 -0.4375q0.375 -0.109375 1.171875 -0.203125q1.59375 -0.1875 2.34375 -0.453125q0.015625 -0.265625 0.015625 -0.34375q0 -0.8125 -0.375 -1.140625q-0.515625 -0.4375 -1.5 -0.4375q-0.9375 0 -1.390625 0.328125q-0.4375 0.3125 -0.640625 1.140625l-1.296875 -0.171875q0.171875 -0.828125 0.578125 -1.328125q0.40625 -0.51560974 1.171875 -0.78123474q0.765625 -0.28125 1.765625 -0.28125q1.0 0 1.609375 0.234375q0.625 0.234375 0.921875 0.59375q0.296875 0.34373474 0.40625 0.89060974q0.0625 0.34375 0.0625 1.21875l0 1.75q0 1.84375 0.078125 2.328125q0.09375 0.484375 0.34375 0.9375l-1.375 0q-0.203125 -0.40625 -0.265625 -0.953125zm-0.109375 -2.953125q-0.71875 0.296875 -2.15625 0.5q-0.8125 0.125 -1.15625 0.265625q-0.328125 0.140625 -0.515625 0.421875q-0.171875 0.28125 -0.171875 0.625q0 0.53125 0.390625 0.890625q0.40625 0.34375 1.171875 0.34375q0.765625 0 1.359375 -0.328125q0.59375 -0.34375 0.875 -0.921875q0.203125 -0.4375 0.203125 -1.3125l0 -0.484375zm3.151123 3.90625l0 -10.73436l1.328125 0l0 10.73436l-1.328125 0zm8.578125 0l-1.21875 0l0 -10.73436l1.3125 0l0 3.8281097q0.84375 -1.0468597 2.140625 -1.0468597q0.71875 0 1.359375 0.296875q0.640625 0.28125 1.046875 0.81248474q0.421875 0.515625 0.65625 1.265625q0.234375 0.734375 0.234375 1.578125q0 2.0 -1.0 3.09375q-0.984375 1.078125 -2.375 1.078125q-1.375 0 -2.15625 -1.140625l0 0.96875zm-0.015625 -3.953125q0 1.40625 0.390625 2.03125q0.609375 1.015625 1.671875 1.015625q0.875 0 1.5 -0.75q0.625 -0.75 0.625 -2.234375q0 -1.53125 -0.609375 -2.25q-0.59375 -0.734375 -1.453125 -0.734375q-0.859375 0 -1.5 0.75q-0.625 0.75 -0.625 2.171875zm12.057373 3.953125l0 -1.140625q-0.921875 1.3125 -2.46875 1.3125q-0.6875 0 -1.296875 -0.265625q-0.59375 -0.265625 -0.890625 -0.65625q-0.28125 -0.40625 -0.390625 -0.984375q-0.09375 -0.375 -0.09375 -1.21875l0 -4.8281097l1.328125 0l0 4.3124847q0 1.03125 0.078125 1.390625q0.125 0.53125 0.515625 0.828125q0.40625 0.296875 1.0 0.296875q0.59375 0 1.109375 -0.296875q0.53125 -0.3125 0.75 -0.828125q0.21875 -0.53125 0.21875 -1.53125l0 -4.1718597l1.3125 0l0 7.7812347l-1.171875 0zm5.932312 -1.171875l0.1875 1.15625q-0.5625 0.125 -1.0 0.125q-0.71875 0 -1.125 -0.234375q-0.390625 -0.234375 -0.546875 -0.59375q-0.15625 -0.375 -0.15625 -1.5625l0 -4.46875l-0.96875 0l0 -1.0312347l0.96875 0l0 -1.921875l1.3125 -0.796875l0 2.71875l1.328125 0l0 1.0312347l-1.328125 0l0 4.546875q0 0.5625 0.0625 0.734375q0.078125 0.15625 0.234375 0.25q0.15625 0.09375 0.4375 0.09375q0.234375 0 0.59375 -0.046875z" fill-rule="nonzero"></path><path fill="#000000" d="m599.5221 281.0879l0 -7.78125l1.1875 0l0 1.109375q0.859375 -1.28125 2.484375 -1.28125q0.703125 0 1.28125 0.25q0.59375 0.25 0.890625 0.671875q0.296875 0.40625 0.40625 0.96875q0.078125 0.359375 0.078125 1.28125l0 4.78125l-1.328125 0l0 -4.734375q0 -0.796875 -0.15625 -1.1875q-0.140625 -0.40625 -0.53125 -0.640625q-0.390625 -0.25 -0.921875 -0.25q-0.84375 0 -1.453125 0.53125q-0.609375 0.53125 -0.609375 2.03125l0 4.25l-1.328125 0zm7.666748 -3.890625q0 -2.15625 1.203125 -3.203125q1.0 -0.859375 2.4375 -0.859375q1.609375 0 2.625 1.046875q1.015625 1.046875 1.015625 2.90625q0 1.5 -0.453125 2.359375q-0.4375 0.859375 -1.3125 1.34375q-0.859375 0.46875 -1.875 0.46875q-1.625 0 -2.640625 -1.046875q-1.0 -1.046875 -1.0 -3.015625zm1.359375 0q0 1.5 0.640625 2.25q0.65625 0.734375 1.640625 0.734375q0.984375 0 1.640625 -0.75q0.65625 -0.75 0.65625 -2.28125q0 -1.4375 -0.65625 -2.171875q-0.65625 -0.75 -1.640625 -0.75q-0.984375 0 -1.640625 0.734375q-0.640625 0.734375 -0.640625 2.234375zm7.276123 3.890625l0 -7.78125l1.1875 0l0 1.109375q0.859375 -1.28125 2.484375 -1.28125q0.703125 0 1.28125 0.25q0.59375 0.25 0.890625 0.671875q0.296875 0.40625 0.40625 0.96875q0.078125 0.359375 0.078125 1.28125l0 4.78125l-1.328125 0l0 -4.734375q0 -0.796875 -0.15625 -1.1875q-0.140625 -0.40625 -0.53125 -0.640625q-0.390625 -0.25 -0.921875 -0.25q-0.84375 0 -1.453125 0.53125q-0.609375 0.53125 -0.609375 2.03125l0 4.25l-1.328125 0zm7.635498 -3.21875l0 -1.328125l4.0625 0l0 1.328125l-4.0625 0zm5.380615 3.21875l0 -7.78125l1.1875 0l0 1.1875q0.453125 -0.828125 0.84375 -1.09375q0.390625 -0.265625 0.84375 -0.265625q0.671875 0 1.359375 0.421875l-0.453125 1.21875q-0.484375 -0.28125 -0.96875 -0.28125q-0.4375 0 -0.78125 0.265625q-0.34375 0.25 -0.484375 0.71875q-0.21875 0.703125 -0.21875 1.53125l0 4.078125l-1.328125 0zm10.224426 -2.5l1.359375 0.15625q-0.3125 1.203125 -1.1875 1.859375q-0.875 0.65625 -2.234375 0.65625q-1.703125 0 -2.703125 -1.046875q-1.0 -1.046875 -1.0 -2.953125q0 -1.953125 1.015625 -3.03125q1.015625 -1.09375 2.625 -1.09375q1.5625 0 2.546875 1.0625q0.984375 1.0625 0.984375 2.984375q0 0.125 0 0.359375l-5.8125 0q0.078125 1.28125 0.71875 1.96875q0.65625 0.671875 1.640625 0.671875q0.71875 0 1.234375 -0.375q0.515625 -0.390625 0.8125 -1.21875zm-4.328125 -2.140625l4.34375 0q-0.09375 -0.984375 -0.5 -1.46875q-0.625 -0.765625 -1.625 -0.765625q-0.921875 0 -1.546875 0.609375q-0.609375 0.609375 -0.671875 1.625zm12.260437 4.640625l0 -1.140625q-0.921875 1.3125 -2.46875 1.3125q-0.6875 0 -1.296875 -0.265625q-0.59375 -0.265625 -0.890625 -0.65625q-0.28125 -0.40625 -0.390625 -0.984375q-0.09375 -0.375 -0.09375 -1.21875l0 -4.828125l1.328125 0l0 4.3125q0 1.03125 0.078125 1.390625q0.125 0.53125 0.515625 0.828125q0.40625 0.296875 1.0 0.296875q0.59375 0 1.109375 -0.296875q0.53125 -0.3125 0.75 -0.828125q0.21875 -0.53125 0.21875 -1.53125l0 -4.171875l1.3125 0l0 7.78125l-1.171875 0zm2.526123 -2.328125l1.296875 -0.203125q0.109375 0.78125 0.609375 1.203125q0.5 0.421875 1.40625 0.421875q0.90625 0 1.34375 -0.359375q0.4375 -0.375 0.4375 -0.875q0 -0.453125 -0.390625 -0.703125q-0.265625 -0.1875 -1.34375 -0.453125q-1.453125 -0.359375 -2.015625 -0.625q-0.546875 -0.28125 -0.84375 -0.75q-0.28125 -0.46875 -0.28125 -1.046875q0 -0.515625 0.234375 -0.953125q0.234375 -0.453125 0.640625 -0.734375q0.3125 -0.234375 0.84375 -0.390625q0.53125 -0.15625 1.140625 -0.15625q0.90625 0 1.59375 0.265625q0.703125 0.265625 1.03125 0.71875q0.328125 0.4375 0.453125 1.203125l-1.28125 0.171875q-0.09375 -0.609375 -0.515625 -0.9375q-0.421875 -0.34375 -1.1875 -0.34375q-0.90625 0 -1.296875 0.3125q-0.390625 0.296875 -0.390625 0.703125q0 0.25 0.15625 0.453125q0.171875 0.21875 0.515625 0.359375q0.1875 0.0625 1.15625 0.328125q1.40625 0.375 1.953125 0.609375q0.5625 0.234375 0.875 0.703125q0.3125 0.453125 0.3125 1.125q0 0.65625 -0.390625 1.234375q-0.375 0.578125 -1.109375 0.90625q-0.71875 0.3125 -1.640625 0.3125q-1.515625 0 -2.3125 -0.625q-0.78125 -0.625 -1.0 -1.875zm12.921875 1.375q-0.734375 0.609375 -1.40625 0.875q-0.671875 0.25 -1.453125 0.25q-1.28125 0 -1.96875 -0.625q-0.6875 -0.625 -0.6875 -1.59375q0 -0.578125 0.25 -1.046875q0.265625 -0.46875 0.6875 -0.75q0.421875 -0.296875 0.953125 -0.4375q0.375 -0.109375 1.171875 -0.203125q1.59375 -0.1875 2.34375 -0.453125q0.015625 -0.265625 0.015625 -0.34375q0 -0.8125 -0.375 -1.140625q-0.515625 -0.4375 -1.5 -0.4375q-0.9375 0 -1.390625 0.328125q-0.4375 0.3125 -0.640625 1.140625l-1.296875 -0.171875q0.171875 -0.828125 0.578125 -1.328125q0.40625 -0.515625 1.171875 -0.78125q0.765625 -0.28125 1.765625 -0.28125q1.0 0 1.609375 0.234375q0.625 0.234375 0.921875 0.59375q0.296875 0.34375 0.40625 0.890625q0.0625 0.34375 0.0625 1.21875l0 1.75q0 1.84375 0.078125 2.328125q0.09375 0.484375 0.34375 0.9375l-1.375 0q-0.203125 -0.40625 -0.265625 -0.953125zm-0.109375 -2.953125q-0.71875 0.296875 -2.15625 0.5q-0.8125 0.125 -1.15625 0.265625q-0.328125 0.140625 -0.515625 0.421875q-0.171875 0.28125 -0.171875 0.625q0 0.53125 0.390625 0.890625q0.40625 0.34375 1.171875 0.34375q0.765625 0 1.359375 -0.328125q0.59375 -0.34375 0.875 -0.921875q0.203125 -0.4375 0.203125 -1.3125l0 -0.484375zm4.401123 3.90625l-1.21875 0l0 -10.734375l1.3125 0l0 3.828125q0.84375 -1.046875 2.140625 -1.046875q0.71875 0 1.359375 0.296875q0.640625 0.28125 1.046875 0.8125q0.421875 0.515625 0.65625 1.265625q0.234375 0.734375 0.234375 1.578125q0 2.0 -1.0 3.09375q-0.984375 1.078125 -2.375 1.078125q-1.375 0 -2.15625 -1.140625l0 0.96875zm-0.015625 -3.953125q0 1.40625 0.390625 2.03125q0.609375 1.015625 1.671875 1.015625q0.875 0 1.5 -0.75q0.625 -0.75 0.625 -2.234375q0 -1.53125 -0.609375 -2.25q-0.59375 -0.734375 -1.453125 -0.734375q-0.859375 0 -1.5 0.75q-0.625 0.75 -0.625 2.171875zm6.916748 3.953125l0 -10.734375l1.328125 0l0 10.734375l-1.328125 0zm8.6154785 -2.5l1.359375 0.15625q-0.3125 1.203125 -1.1875 1.859375q-0.875 0.65625 -2.234375 0.65625q-1.703125 0 -2.703125 -1.046875q-1.0 -1.046875 -1.0 -2.953125q0 -1.953125 1.015625 -3.03125q1.015625 -1.09375 2.625 -1.09375q1.5625 0 2.546875 1.0625q0.984375 1.0625 0.984375 2.984375q0 0.125 0 0.359375l-5.8125 0q0.078125 1.28125 0.71875 1.96875q0.65625 0.671875 1.640625 0.671875q0.71875 0 1.234375 -0.375q0.515625 -0.390625 0.8125 -1.21875zm-4.328125 -2.140625l4.34375 0q-0.09375 -0.984375 -0.5 -1.46875q-0.625 -0.765625 -1.625 -0.765625q-0.921875 0 -1.546875 0.609375q-0.609375 0.609375 -0.671875 1.625z" fill-rule="nonzero"></path><path fill="#000000" d="m619.87714 299.0879l0 -7.78125l1.1875 0l0 1.1875q0.453125 -0.828125 0.84375 -1.09375q0.390625 -0.265625 0.84375 -0.265625q0.671875 0 1.359375 0.421875l-0.453125 1.21875q-0.484375 -0.28125 -0.96875 -0.28125q-0.4375 0 -0.78125 0.265625q-0.34375 0.25 -0.484375 0.71875q-0.21875 0.703125 -0.21875 1.53125l0 4.078125l-1.328125 0zm4.411865 -3.890625q0 -2.15625 1.203125 -3.203125q1.0 -0.859375 2.4375 -0.859375q1.609375 0 2.625 1.046875q1.015625 1.046875 1.015625 2.90625q0 1.5 -0.453125 2.359375q-0.4375 0.859375 -1.3125 1.34375q-0.859375 0.46875 -1.875 0.46875q-1.625 0 -2.640625 -1.046875q-1.0 -1.046875 -1.0 -3.015625zm1.359375 0q0 1.5 0.640625 2.25q0.65625 0.734375 1.640625 0.734375q0.984375 0 1.640625 -0.75q0.65625 -0.75 0.65625 -2.28125q0 -1.4375 -0.65625 -2.171875q-0.65625 -0.75 -1.640625 -0.75q-0.984375 0 -1.640625 0.734375q-0.640625 0.734375 -0.640625 2.234375zm12.385498 3.890625l0 -1.140625q-0.921875 1.3125 -2.46875 1.3125q-0.6875 0 -1.296875 -0.265625q-0.59375 -0.265625 -0.890625 -0.65625q-0.28125 -0.40625 -0.390625 -0.984375q-0.09375 -0.375 -0.09375 -1.21875l0 -4.828125l1.328125 0l0 4.3125q0 1.03125 0.078125 1.390625q0.125 0.53125 0.515625 0.828125q0.40625 0.296875 1.0 0.296875q0.59375 0 1.109375 -0.296875q0.53125 -0.3125 0.75 -0.828125q0.21875 -0.53125 0.21875 -1.53125l0 -4.171875l1.3125 0l0 7.78125l-1.171875 0zm5.932373 -1.171875l0.1875 1.15625q-0.5625 0.125 -1.0 0.125q-0.71875 0 -1.125 -0.234375q-0.390625 -0.234375 -0.546875 -0.59375q-0.15625 -0.375 -0.15625 -1.5625l0 -4.46875l-0.96875 0l0 -1.03125l0.96875 0l0 -1.921875l1.3125 -0.796875l0 2.71875l1.328125 0l0 1.03125l-1.328125 0l0 4.546875q0 0.5625 0.0625 0.734375q0.078125 0.15625 0.234375 0.25q0.15625 0.09375 0.4375 0.09375q0.234375 0 0.59375 -0.046875zm1.1969604 -8.046875l0 -1.515625l1.3125 0l0 1.515625l-1.3125 0zm0 9.21875l0 -7.78125l1.3125 0l0 7.78125l-1.3125 0zm3.2405396 0l0 -7.78125l1.1875 0l0 1.109375q0.859375 -1.28125 2.484375 -1.28125q0.703125 0 1.28125 0.25q0.59375 0.25 0.890625 0.671875q0.296875 0.40625 0.40625 0.96875q0.078125 0.359375 0.078125 1.28125l0 4.78125l-1.328125 0l0 -4.734375q0 -0.796875 -0.15625 -1.1875q-0.140625 -0.40625 -0.53125 -0.640625q-0.390625 -0.25 -0.921875 -0.25q-0.84375 0 -1.453125 0.53125q-0.609375 0.53125 -0.609375 2.03125l0 4.25l-1.328125 0zm13.479187 -2.5l1.359375 0.15625q-0.3125 1.203125 -1.1875 1.859375q-0.875 0.65625 -2.234375 0.65625q-1.703125 0 -2.703125 -1.046875q-1.0 -1.046875 -1.0 -2.953125q0 -1.953125 1.015625 -3.03125q1.015625 -1.09375 2.625 -1.09375q1.5625 0 2.546875 1.0625q0.984375 1.0625 0.984375 2.984375q0 0.125 0 0.359375l-5.8125 0q0.078125 1.28125 0.71875 1.96875q0.65625 0.671875 1.640625 0.671875q0.71875 0 1.234375 -0.375q0.515625 -0.390625 0.8125 -1.21875zm-4.328125 -2.140625l4.34375 0q-0.09375 -0.984375 -0.5 -1.46875q-0.625 -0.765625 -1.625 -0.765625q-0.921875 0 -1.546875 0.609375q-0.609375 0.609375 -0.671875 1.625z" fill-rule="nonzero"></path><path fill="#000000" fill-opacity="0.0" d="m129.55905 147.8189c0 63.70079 54.7874 127.401566 109.574814 127.401566" fill-rule="evenodd"></path><path stroke="#1155cc" stroke-width="3.0" stroke-linejoin="round" stroke-linecap="butt" d="m129.55905 147.8189c0 31.850403 13.696854 63.70079 34.242126 87.58859c10.272644 11.943893 22.257385 21.89714 35.098175 28.864426c6.42041 3.483612 13.054825 6.220764 19.796219 8.087006c3.3707275 0.93310547 6.7681885 1.6484985 10.179016 2.1306152l0.003982544 5.493164E-4" fill-rule="evenodd"></path><path fill="#1155cc" stroke="#1155cc" stroke-width="3.0" stroke-linecap="butt" d="m228.87857 274.49008l-3.6049042 3.1255493l9.485565 -2.706726l-9.00621 -4.0237427z" fill-rule="evenodd"></path><path fill="#000000" fill-opacity="0.0" d="m88.708664 242.62204c33.906586 0 49.010025 8.149612 67.81319 16.299225c18.803146 8.149597 41.306 16.299194 82.612015 16.299194" fill-rule="evenodd"></path><path stroke="#1155cc" stroke-width="3.0" stroke-linejoin="round" stroke-linecap="butt" d="m88.708664 242.62204c33.906586 0 49.01004 8.149612 67.81319 16.299225c9.401566 4.0747986 19.728073 8.149597 32.867416 11.205719c6.569702 1.5280457 13.84259 2.801422 22.054688 3.6927795c4.106064 0.4456787 8.446899 0.7958374 13.052048 1.0346069c1.1512909 0.059692383 2.319107 0.11242676 3.5038757 0.15792847l0.8542633 0.029968262" fill-rule="evenodd"></path><path fill="#1155cc" stroke="#1155cc" stroke-width="3.0" stroke-linecap="butt" d="m228.85414 275.0423l-3.431717 3.3147583l9.3263855 -3.2125854l-9.209442 -3.533905z" fill-rule="evenodd"></path><path fill="#000000" fill-opacity="0.0" d="m112.173225 348.70078c31.30468 0 46.739296 -18.370056 62.609367 -36.740143c15.870087 -18.370087 32.17563 -36.740173 64.35127 -36.740173" fill-rule="evenodd"></path><path stroke="#1155cc" stroke-width="3.0" stroke-linejoin="round" stroke-linecap="butt" d="m112.173225 348.70078c31.304695 0 46.739296 -18.370056 62.609383 -36.740143c7.935028 -9.185028 15.978943 -18.370087 26.061035 -25.25885c5.0410614 -3.444397 10.59166 -6.314728 16.89296 -8.323944c3.1506653 -1.0046082 6.4889984 -1.7939758 10.045166 -2.3321533c0.22224426 -0.03363037 0.44537354 -0.06628418 0.6693268 -0.097961426l0.42332458 -0.057739258" fill-rule="evenodd"></path><path fill="#1155cc" stroke="#1155cc" stroke-width="3.0" stroke-linecap="butt" d="m228.87442 275.88998l-3.1468964 3.5862732l9.029938 -3.9701843l-9.46933 -2.7630005z" fill-rule="evenodd"></path><path fill="#000000" fill-opacity="0.0" d="m720.86615 275.22046c42.614136 0 85.22833 -63.700775 85.22833 -127.401566" fill-rule="evenodd"></path><path stroke="#38761d" stroke-width="3.0" stroke-linejoin="round" stroke-linecap="butt" d="m720.86615 275.22046c21.307068 0 42.614136 -15.925171 58.594482 -39.812973c7.9901733 -11.943909 14.648621 -25.878448 19.30957 -40.80832c2.3304443 -7.4649353 4.16156 -15.178711 5.409973 -23.016891c0.62420654 -3.919098 1.1027832 -7.869293 1.425293 -11.835037c0.04034424 -0.49571228 0.07824707 -0.9916687 0.113586426 -1.487854l0.011108398 -0.16567993" fill-rule="evenodd"></path><path fill="#38761d" stroke="#38761d" stroke-width="3.0" stroke-linecap="butt" d="m805.7301 158.0937l3.2520752 3.4911957l-3.0430908 -9.383057l-3.7001953 9.143921z" fill-rule="evenodd"></path><path fill="#000000" fill-opacity="0.0" d="m720.86615 275.22046c31.086609 0 46.629883 -8.590546 62.173218 -17.181091c15.543335 -8.590546 31.086609 -17.181107 62.173218 -17.181107" fill-rule="evenodd"></path><path stroke="#38761d" stroke-width="3.0" stroke-linejoin="round" stroke-linecap="butt" d="m720.86615 275.22046c31.086609 0 46.629883 -8.590546 62.173218 -17.181091c7.7716675 -4.295273 15.543335 -8.590546 25.257874 -11.812012c4.8573 -1.6107178 10.200317 -2.953003 16.271912 -3.8925934c3.0358276 -0.4697876 6.253784 -0.8388977 9.684204 -1.0905914l0.68359375 -0.046844482" fill-rule="evenodd"></path><path fill="#38761d" stroke="#38761d" stroke-width="3.0" stroke-linecap="butt" d="m834.93695 241.19733l-3.2606812 3.4831848l9.153015 -3.6776123l-9.375549 -3.0662231z" fill-rule="evenodd"></path><path fill="#000000" fill-opacity="0.0" d="m720.86615 275.22046c31.307068 0 46.960632 13.803162 62.614136 27.606323c15.653564 13.803131 31.307129 27.606293 62.614197 27.606293" fill-rule="evenodd"></path><path stroke="#38761d" stroke-width="3.0" stroke-linejoin="round" stroke-linecap="butt" d="m720.86615 275.22046c31.307068 0 46.960632 13.803162 62.614136 27.606323c7.826782 6.9015503 15.653564 13.803131 25.437012 18.97931c4.8917847 2.5881042 10.272644 4.7448425 16.38733 6.2545776c3.057312 0.7548523 6.2980347 1.3479614 9.752869 1.7523499c0.21594238 0.025268555 0.43273926 0.049804688 0.6503296 0.07357788l0.119262695 0.01260376" fill-rule="evenodd"></path><path fill="#38761d" stroke="#38761d" stroke-width="3.0" stroke-linecap="butt" d="m835.8271 329.8992l-3.5443726 3.1940002l9.432007 -2.8878784l-9.081604 -3.850525z" fill-rule="evenodd"></path><path fill="#000000" fill-opacity="0.0" d="m49.59055 305.44095l0 -93.03937l39.118114 0l0 93.03937z" fill-rule="evenodd"></path><path fill="#1155cc" d="m65.33523 285.30252l0 2.796875l-1.390625 0l0 -7.25l1.390625 0l0 2.78125l9.328125 0l0 -2.78125l1.40625 0l0 7.25l-1.40625 0l0 -2.796875l-9.328125 0zm1.421875 -7.3510437l0 -1.4375l1.5 -0.0625q-0.484375 -0.40625 -0.796875 -0.78125q-0.328125 -0.390625 -0.515625 -0.75q-0.203125 -0.375 -0.28125 -0.75q-0.078125 -0.390625 -0.078125 -0.796875q0 -1.4375 0.859375 -2.171875q0.84375 -0.734375 2.546875 -0.734375l6.078125 0l0 1.609375l-5.953125 0q-1.09375 0 -1.609375 0.40625q-0.53125 0.40625 -0.53125 1.21875q0 0.296875 0.09375 0.578125q0.09375 0.28125 0.3125 0.59375q0.203125 0.296875 0.578125 0.65625q0.375 0.359375 0.9375 0.8125l6.171875 0l0 1.609375l-9.3125 0zm4.484375 -18.210419q1.25 0 2.1875 0.34375q0.921875 0.34375 1.53125 0.953125q0.609375 0.609375 0.921875 1.453125q0.296875 0.828125 0.296875 1.8125q0 0.4375 -0.046875 0.890625q-0.046875 0.4375 -0.15625 0.890625l3.890625 0l0 1.609375l-13.109375 0l0 -1.4375l1.5625 -0.109375q-0.96875 -0.6875 -1.34375 -1.46875q-0.390625 -0.796875 -0.390625 -1.71875q0 -0.796875 0.34375 -1.390625q0.328125 -0.609375 0.9375 -1.015625q0.609375 -0.40625 1.46875 -0.609375q0.859375 -0.203125 1.90625 -0.203125zm0.078125 1.640625q-0.734375 0 -1.34375 0.109375q-0.609375 0.109375 -1.046875 0.34375q-0.4375 0.234375 -0.6875 0.59375q-0.25 0.359375 -0.25 0.859375q0 0.3125 0.109375 0.625q0.09375 0.3125 0.328125 0.65625q0.21875 0.328125 0.59375 0.703125q0.375 0.375 0.9375 0.8125l4.515625 0q0.1875 -0.453125 0.296875 -0.9375q0.09375 -0.5 0.09375 -0.96875q0 -1.3125 -0.875 -2.046875q-0.890625 -0.75 -2.671875 -0.75zm4.75 -11.429169l0 1.4375l-1.5 0.0625q0.484375 0.421875 0.8125 0.796875q0.3125 0.375 0.515625 0.75q0.1875 0.359375 0.265625 0.734375q0.078125 0.375 0.078125 0.796875q0 1.4375 -0.84375 2.171875q-0.84375 0.734375 -2.5625 0.734375l-6.078125 0l0 -1.609375l5.953125 0q2.140625 0 2.140625 -1.625q0 -0.296875 -0.078125 -0.578125q-0.09375 -0.28125 -0.3125 -0.59375q-0.21875 -0.3125 -0.578125 -0.65625q-0.375 -0.359375 -0.953125 -0.8125l-6.171875 0l0 -1.609375l9.3125 0zm-0.125 -10.272919q0.140625 0.546875 0.1875 1.125q0.0625 0.578125 0.0625 1.1875q0 1.75 -0.78125 2.625q-0.796875 0.859375 -2.4375 0.859375l-4.859375 0l0 2.609375l-1.359375 0l0 -2.609375l-2.5625 0l-0.421875 -1.625l2.984375 0l0 -4.171875l1.359375 0l0 4.171875l4.71875 0q1.0 0 1.5 -0.53125q0.5 -0.53125 0.5 -1.5625q0 -0.453125 -0.0625 -0.984375q-0.078125 -0.53125 -0.21875 -1.09375l1.390625 0zm-2.421875 -10.132294q0.5 0 0.890625 0.171875q0.390625 0.15625 0.6875 0.453125q0.296875 0.28125 0.515625 0.671875q0.21875 0.375 0.359375 0.8125q0.125 0.421875 0.1875 0.875q0.078125 0.453125 0.078125 0.890625q0 0.953125 -0.09375 1.75q-0.078125 0.78125 -0.265625 1.546875l-1.484375 0q0.234375 -0.8125 0.359375 -1.625q0.109375 -0.8125 0.109375 -1.609375q0 -1.15625 -0.3125 -1.703125q-0.3125 -0.5625 -0.890625 -0.5625q-0.25 0 -0.453125 0.09375q-0.203125 0.078125 -0.375 0.3125q-0.1875 0.234375 -0.375 0.71875q-0.203125 0.484375 -0.453125 1.328125q-0.1875 0.640625 -0.421875 1.171875q-0.234375 0.53125 -0.5625 0.921875q-0.328125 0.390625 -0.765625 0.609375q-0.4375 0.21875 -1.03125 0.21875q-0.390625 0 -0.84375 -0.171875q-0.46875 -0.1875 -0.859375 -0.625q-0.40625 -0.4375 -0.671875 -1.171875q-0.265625 -0.75 -0.265625 -1.859375q0 -0.546875 0.0625 -1.21875q0.0625 -0.671875 0.203125 -1.390625l1.4375 0q-0.171875 0.765625 -0.265625 1.453125q-0.09375 0.671875 -0.09375 1.171875q0 0.609375 0.09375 1.03125q0.09375 0.40625 0.265625 0.65625q0.15625 0.25 0.375 0.375q0.21875 0.109375 0.46875 0.109375q0.25 0 0.453125 -0.09375q0.203125 -0.109375 0.390625 -0.375q0.1875 -0.265625 0.390625 -0.734375q0.1875 -0.46875 0.40625 -1.234375q0.234375 -0.828125 0.5 -1.390625q0.265625 -0.5625 0.59375 -0.90625q0.328125 -0.359375 0.734375 -0.515625q0.40625 -0.15625 0.921875 -0.15625z" fill-rule="nonzero"></path><path fill="#000000" fill-opacity="0.0" d="m846.0945 304.55905l0 -93.03937l39.118103 0l0 93.03937z" fill-rule="evenodd"></path><path fill="#38761d" d="m866.4329 285.62155q1.625 0 2.8125 0.390625q1.1875 0.375 1.96875 1.03125q0.78125 0.65625 1.15625 1.53125q0.375 0.875 0.375 1.859375q0 1.15625 -0.421875 2.03125q-0.421875 0.859375 -1.21875 1.4375q-0.796875 0.578125 -1.9375 0.859375q-1.15625 0.265625 -2.59375 0.265625q-1.609375 0 -2.796875 -0.375q-1.1875 -0.390625 -1.96875 -1.03125q-0.78125 -0.65625 -1.15625 -1.53125q-0.375 -0.875 -0.375 -1.84375q0 -1.171875 0.4375 -2.03125q0.421875 -0.875 1.21875 -1.453125q0.78125 -0.578125 1.921875 -0.859375q1.140625 -0.28125 2.578125 -0.28125zm0.125 1.71875q-1.078125 0 -1.953125 0.171875q-0.890625 0.15625 -1.53125 0.515625q-0.640625 0.359375 -0.984375 0.9375q-0.359375 0.5625 -0.359375 1.375q0 0.78125 0.375 1.34375q0.375 0.546875 1.03125 0.921875q0.640625 0.359375 1.515625 0.53125q0.859375 0.171875 1.828125 0.171875q1.078125 0 1.96875 -0.15625q0.875 -0.171875 1.515625 -0.53125q0.640625 -0.359375 1.0 -0.921875q0.34375 -0.5625 0.34375 -1.359375q0 -0.78125 -0.375 -1.34375q-0.375 -0.578125 -1.015625 -0.9375q-0.65625 -0.375 -1.515625 -0.546875q-0.859375 -0.171875 -1.84375 -0.171875zm6.015625 -11.007294l0 1.4375l-1.5 0.0625q0.484375 0.421875 0.8125 0.796875q0.3125 0.375 0.515625 0.75q0.1875 0.359375 0.265625 0.734375q0.078125 0.375 0.078125 0.796875q0 1.4375 -0.84375 2.171875q-0.84375 0.734375 -2.5625 0.734375l-6.078125 0l0 -1.609375l5.953125 0q2.140625 0 2.140625 -1.625q0 -0.296875 -0.078125 -0.578125q-0.09375 -0.28125 -0.3125 -0.59375q-0.21875 -0.3125 -0.578125 -0.65625q-0.375 -0.359375 -0.953125 -0.8125l-6.171875 0l0 -1.609375l9.3125 0zm-0.125 -10.272919q0.140625 0.546875 0.1875 1.125q0.0625 0.578125 0.0625 1.1875q0 1.75 -0.78125 2.625q-0.796875 0.859375 -2.4375 0.859375l-4.859375 0l0 2.609375l-1.359375 0l0 -2.609375l-2.5625 0l-0.421875 -1.625l2.984375 0l0 -4.171875l1.359375 0l0 4.171875l4.71875 0q1.0 0 1.5 -0.53125q0.5 -0.53125 0.5 -1.5625q0 -0.453125 -0.0625 -0.984375q-0.078125 -0.53125 -0.21875 -1.09375l1.390625 0zm-4.703125 -10.710419q1.25 0 2.1875 0.34375q0.921875 0.34375 1.53125 0.953125q0.609375 0.609375 0.921875 1.453125q0.296875 0.828125 0.296875 1.8125q0 0.4375 -0.046875 0.890625q-0.046875 0.4375 -0.15625 0.890625l3.890625 0l0 1.609375l-13.109375 0l0 -1.4375l1.5625 -0.109375q-0.96875 -0.6875 -1.34375 -1.46875q-0.390625 -0.796875 -0.390625 -1.71875q0 -0.796875 0.34375 -1.390625q0.328125 -0.609375 0.9375 -1.015625q0.609375 -0.40625 1.46875 -0.609375q0.859375 -0.203125 1.90625 -0.203125zm0.078125 1.640625q-0.734375 0 -1.34375 0.109375q-0.609375 0.109375 -1.046875 0.34375q-0.4375 0.234375 -0.6875 0.59375q-0.25 0.359375 -0.25 0.859375q0 0.3125 0.109375 0.625q0.09375 0.3125 0.328125 0.65625q0.21875 0.328125 0.59375 0.703125q0.375 0.375 0.9375 0.8125l4.515625 0q0.1875 -0.453125 0.296875 -0.9375q0.09375 -0.5 0.09375 -0.96875q0 -1.3125 -0.875 -2.046875q-0.890625 -0.75 -2.671875 -0.75zm4.75 -11.429169l0 1.4375l-1.5 0.0625q0.484375 0.421875 0.8125 0.796875q0.3125 0.375 0.515625 0.75q0.1875 0.359375 0.265625 0.734375q0.078125 0.375 0.078125 0.796875q0 1.4375 -0.84375 2.171875q-0.84375 0.734375 -2.5625 0.734375l-6.078125 0l0 -1.609375l5.953125 0q2.140625 0 2.140625 -1.625q0 -0.296875 -0.078125 -0.578125q-0.09375 -0.28125 -0.3125 -0.59375q-0.21875 -0.3125 -0.578125 -0.65625q-0.375 -0.359375 -0.953125 -0.8125l-6.171875 0l0 -1.609375l9.3125 0zm-0.125 -10.272919q0.140625 0.546875 0.1875 1.125q0.0625 0.578125 0.0625 1.1875q0 1.75 -0.78125 2.625q-0.796875 0.859375 -2.4375 0.859375l-4.859375 0l0 2.609375l-1.359375 0l0 -2.609375l-2.5625 0l-0.421875 -1.625l2.984375 0l0 -4.171875l1.359375 0l0 4.171875l4.71875 0q1.0 0 1.5 -0.53125q0.5 -0.53125 0.5 -1.5625q0 -0.453125 -0.0625 -0.984375q-0.078125 -0.53125 -0.21875 -1.09375l1.390625 0zm-2.421875 -10.132294q0.5 0 0.890625 0.171875q0.390625 0.15625 0.6875 0.453125q0.296875 0.28125 0.515625 0.671875q0.21875 0.375 0.359375 0.8125q0.125 0.421875 0.1875 0.875q0.078125 0.453125 0.078125 0.890625q0 0.953125 -0.09375 1.75q-0.078125 0.78125 -0.265625 1.546875l-1.484375 0q0.234375 -0.8125 0.359375 -1.625q0.109375 -0.8125 0.109375 -1.609375q0 -1.15625 -0.3125 -1.703125q-0.3125 -0.5625 -0.890625 -0.5625q-0.25 0 -0.453125 0.09375q-0.203125 0.078125 -0.375 0.3125q-0.1875 0.234375 -0.375 0.71875q-0.203125 0.484375 -0.453125 1.328125q-0.1875 0.640625 -0.421875 1.171875q-0.234375 0.53125 -0.5625 0.921875q-0.328125 0.390625 -0.765625 0.609375q-0.4375 0.21875 -1.03125 0.21875q-0.390625 0 -0.84375 -0.171875q-0.46875 -0.1875 -0.859375 -0.625q-0.40625 -0.4375 -0.671875 -1.171875q-0.265625 -0.75 -0.265625 -1.859375q0 -0.546875 0.0625 -1.21875q0.0625 -0.671875 0.203125 -1.390625l1.4375 0q-0.171875 0.765625 -0.265625 1.453125q-0.09375 0.671875 -0.09375 1.171875q0 0.609375 0.09375 1.03125q0.09375 0.40625 0.265625 0.65625q0.15625 0.25 0.375 0.375q0.21875 0.109375 0.46875 0.109375q0.25 0 0.453125 -0.09375q0.203125 -0.109375 0.390625 -0.375q0.1875 -0.265625 0.390625 -0.734375q0.1875 -0.46875 0.40625 -1.234375q0.234375 -0.828125 0.5 -1.390625q0.265625 -0.5625 0.59375 -0.90625q0.328125 -0.359375 0.734375 -0.515625q0.40625 -0.15625 0.921875 -0.15625z" fill-rule="nonzero"></path><path fill="#000000" fill-opacity="0.0" d="m234.78215 461.74014l0 0l-62.614166 0l0 -103.46454" fill-rule="evenodd"></path><path stroke="#ff0000" stroke-width="3.0" stroke-linejoin="round" stroke-linecap="butt" d="m234.78215 461.74014l0 0l-62.614166 0l0 -93.18329" fill-rule="evenodd"></path><path fill="#ff0000" stroke="#ff0000" stroke-width="3.0" stroke-linecap="butt" d="m172.16798 368.55685l3.3737488 3.3737488l-3.3737488 -9.269318l-3.3737488 9.269318z" fill-rule="evenodd"></path><path fill="#000000" fill-opacity="0.0" d="m239.13387 439.99738l127.81102 0l0 43.46457l-127.81102 0z" fill-rule="evenodd"></path><path fill="#ff0000" d="m256.40915 460.66528l-2.75 0l0 -1.328125l4.390625 0l0 7.96875l2.765625 0l0 1.34375l-7.46875 0l0 -1.34375l3.0625 0l0 -6.640625zm0.5625 -5.234375q0.28125 0 0.5 0.09375q0.234375 0.09375 0.40625 0.28125q0.171875 0.171875 0.265625 0.40625q0.109375 0.21875 0.109375 0.484375q0 0.265625 -0.109375 0.5q-0.09375 0.234375 -0.265625 0.40625q-0.171875 0.171875 -0.40625 0.28125q-0.21875 0.09375 -0.5 0.09375q-0.265625 0 -0.5 -0.09375q-0.234375 -0.109375 -0.40625 -0.28125q-0.171875 -0.171875 -0.265625 -0.40625q-0.09375 -0.234375 -0.09375 -0.5q0 -0.265625 0.09375 -0.484375q0.09375 -0.234375 0.265625 -0.40625q0.171875 -0.1875 0.40625 -0.28125q0.234375 -0.09375 0.5 -0.09375zm6.5229187 3.90625l1.4375 0l0.0625 1.5q0.40625 -0.484375 0.78125 -0.796875q0.390625 -0.328125 0.75 -0.515625q0.375 -0.203125 0.75 -0.28125q0.390625 -0.078125 0.796875 -0.078125q1.4375 0 2.171875 0.859375q0.734375 0.84375 0.734375 2.546875l0 6.078125l-1.609375 0l0 -5.953125q0 -1.09375 -0.40625 -1.609375q-0.40625 -0.53125 -1.21875 -0.53125q-0.296875 0 -0.578125 0.09375q-0.28125 0.09375 -0.59375 0.3125q-0.296875 0.203125 -0.65625 0.578125q-0.359375 0.375 -0.8125 0.9375l0 6.171875l-1.609375 0l0 -9.3125zm18.522919 -2.296875q-1.265625 -0.265625 -2.1875 -0.265625q-2.1875 0 -2.1875 2.28125l0 1.640625l4.09375 0l0 1.34375l-4.09375 0l0 6.609375l-1.640625 0l0 -6.609375l-2.984375 0l0 -1.34375l2.984375 0l0 -1.546875q0 -3.71875 3.875 -3.71875q0.96875 0 2.140625 0.21875l0 1.390625zm-9.75 2.296875l0 0zm19.851044 4.578125q0 1.09375 -0.3125 2.0q-0.296875 0.890625 -0.875 1.546875q-0.578125 0.640625 -1.40625 1.0q-0.828125 0.359375 -1.875 0.359375q-1.0 0 -1.796875 -0.3125q-0.78125 -0.3125 -1.34375 -0.90625q-0.546875 -0.609375 -0.84375 -1.5q-0.28125 -0.890625 -0.28125 -2.0625q0 -1.078125 0.296875 -1.96875q0.3125 -0.90625 0.875 -1.546875q0.578125 -0.640625 1.40625 -1.0q0.828125 -0.359375 1.875 -0.359375q1.0 0 1.796875 0.3125q0.796875 0.3125 1.34375 0.921875q0.5625 0.59375 0.84375 1.484375q0.296875 0.890625 0.296875 2.03125zm-1.65625 0.078125q0 -0.859375 -0.1875 -1.5q-0.1875 -0.65625 -0.546875 -1.078125q-0.34375 -0.4375 -0.859375 -0.65625q-0.5 -0.21875 -1.125 -0.21875q-0.71875 0 -1.234375 0.28125q-0.515625 0.28125 -0.84375 0.765625q-0.328125 0.46875 -0.484375 1.09375q-0.15625 0.625 -0.15625 1.3125q0 0.859375 0.1875 1.515625q0.203125 0.640625 0.546875 1.078125q0.359375 0.421875 0.859375 0.640625q0.5 0.21875 1.125 0.21875q0.734375 0 1.25 -0.28125q0.515625 -0.28125 0.84375 -0.75q0.328125 -0.46875 0.46875 -1.09375q0.15625 -0.640625 0.15625 -1.328125zm12.772919 8.453125l-10.453125 0l0 -1.328125l10.453125 0l0 1.328125zm8.663544 -6.34375q0 0.5 -0.171875 0.890625q-0.15625 0.390625 -0.453125 0.6875q-0.28125 0.296875 -0.671875 0.515625q-0.375 0.21875 -0.8125 0.359375q-0.421875 0.125 -0.875 0.1875q-0.453125 0.078125 -0.890625 0.078125q-0.953125 0 -1.75 -0.09375q-0.78125 -0.078125 -1.546875 -0.265625l0 -1.484375q0.8125 0.234375 1.625 0.359375q0.8125 0.109375 1.609375 0.109375q1.15625 0 1.703125 -0.3125q0.5625 -0.3125 0.5625 -0.890625q0 -0.25 -0.09375 -0.453125q-0.078125 -0.203125 -0.3125 -0.375q-0.234375 -0.1875 -0.71875 -0.375q-0.484375 -0.203125 -1.328125 -0.453125q-0.640625 -0.1875 -1.171875 -0.421875q-0.53125 -0.234375 -0.921875 -0.5625q-0.390625 -0.328125 -0.609375 -0.765625q-0.21875 -0.4375 -0.21875 -1.03125q0 -0.390625 0.171875 -0.84375q0.1875 -0.46875 0.625 -0.859375q0.4375 -0.40625 1.171875 -0.671875q0.75 -0.265625 1.859375 -0.265625q0.546875 0 1.21875 0.0625q0.671875 0.0625 1.390625 0.203125l0 1.4375q-0.765625 -0.171875 -1.453125 -0.265625q-0.671875 -0.09375 -1.171875 -0.09375q-0.609375 0 -1.03125 0.09375q-0.40625 0.09375 -0.65625 0.265625q-0.25 0.15625 -0.375 0.375q-0.109375 0.21875 -0.109375 0.46875q0 0.25 0.09375 0.453125q0.109375 0.203125 0.375 0.390625q0.265625 0.1875 0.734375 0.390625q0.46875 0.1875 1.234375 0.40625q0.828125 0.234375 1.390625 0.5q0.5625 0.265625 0.90625 0.59375q0.359375 0.328125 0.515625 0.734375q0.15625 0.40625 0.15625 0.921875zm10.382294 2.421875q-0.546875 0.140625 -1.125 0.1875q-0.578125 0.0625 -1.1875 0.0625q-1.75 0 -2.625 -0.78125q-0.859375 -0.796875 -0.859375 -2.4375l0 -4.859375l-2.609375 0l0 -1.359375l2.609375 0l0 -2.5625l1.625 -0.421875l0 2.984375l4.171875 0l0 1.359375l-4.171875 0l0 4.71875q0 1.0 0.53125 1.5q0.53125 0.5 1.5625 0.5q0.453125 0 0.984375 -0.0625q0.53125 -0.078125 1.09375 -0.21875l0 1.390625zm8.741669 0.125l-0.03125 -1.25q-0.765625 0.75 -1.546875 1.09375q-0.78125 0.328125 -1.65625 0.328125q-0.796875 0 -1.359375 -0.203125q-0.5625 -0.203125 -0.9375 -0.5625q-0.359375 -0.359375 -0.53125 -0.84375q-0.171875 -0.484375 -0.171875 -1.046875q0 -1.40625 1.046875 -2.1875q1.046875 -0.796875 3.078125 -0.796875l1.9375 0l0 -0.828125q0 -0.8125 -0.53125 -1.3125q-0.53125 -0.5 -1.609375 -0.5q-0.796875 0 -1.5625 0.1875q-0.765625 0.171875 -1.578125 0.484375l0 -1.453125q0.296875 -0.109375 0.671875 -0.21875q0.390625 -0.109375 0.796875 -0.1875q0.421875 -0.078125 0.875 -0.125q0.453125 -0.0625 0.921875 -0.0625q0.84375 0 1.515625 0.1875q0.6875 0.1875 1.15625 0.578125q0.46875 0.375 0.71875 0.953125q0.25 0.5625 0.25 1.34375l0 6.421875l-1.453125 0zm-0.171875 -4.234375l-2.0625 0q-0.59375 0 -1.03125 0.125q-0.4375 0.109375 -0.71875 0.34375q-0.28125 0.21875 -0.421875 0.53125q-0.125 0.296875 -0.125 0.6875q0 0.28125 0.078125 0.53125q0.09375 0.234375 0.28125 0.421875q0.1875 0.1875 0.484375 0.3125q0.296875 0.109375 0.71875 0.109375q0.5625 0 1.28125 -0.34375q0.71875 -0.34375 1.515625 -1.078125l0 -1.640625zm4.8197937 -5.078125l1.484375 0l0.046875 1.71875q0.828125 -1.0 1.625 -1.4375q0.796875 -0.453125 1.625 -0.453125q1.4375 0 2.1875 0.9375q0.75 0.9375 0.6875 2.78125l-1.625 0q0.015625 -1.21875 -0.375 -1.765625q-0.375 -0.5625 -1.109375 -0.5625q-0.328125 0 -0.65625 0.125q-0.328125 0.109375 -0.6875 0.375q-0.34375 0.25 -0.734375 0.65625q-0.390625 0.390625 -0.828125 0.953125l0 5.984375l-1.640625 0l0 -9.3125zm17.382294 9.1875q-0.546875 0.140625 -1.125 0.1875q-0.578125 0.0625 -1.1875 0.0625q-1.75 0 -2.625 -0.78125q-0.859375 -0.796875 -0.859375 -2.4375l0 -4.859375l-2.609375 0l0 -1.359375l2.609375 0l0 -2.5625l1.625 -0.421875l0 2.984375l4.171875 0l0 1.359375l-4.171875 0l0 4.71875q0 1.0 0.53125 1.5q0.53125 0.5 1.5625 0.5q0.453125 0 0.984375 -0.0625q0.53125 -0.078125 1.09375 -0.21875l0 1.390625z" fill-rule="nonzero"></path><path fill="#000000" fill-opacity="0.0" d="m714.2467 461.74014l0 0l74.456726 0l0 -101.73227" fill-rule="evenodd"></path><path stroke="#ff0000" stroke-width="3.0" stroke-linejoin="round" stroke-linecap="butt" d="m714.2467 461.74014l0 0l74.456726 0l0 -91.45102" fill-rule="evenodd"></path><path fill="#ff0000" stroke="#ff0000" stroke-width="3.0" stroke-linecap="butt" d="m788.7034 370.28912l3.3737183 3.3737488l-3.3737183 -9.269287l-3.3737793 9.269287z" fill-rule="evenodd"></path><path fill="#000000" fill-opacity="0.0" d="m603.2966 439.99738l109.57483 0l0 43.46457l-109.57483 0z" fill-rule="evenodd"></path><path fill="#ff0000" d="m621.71106 460.66528l-2.75 0l0 -1.328125l4.390625 0l0 7.96875l2.765625 0l0 1.34375l-7.46875 0l0 -1.34375l3.0625 0l0 -6.640625zm0.5625 -5.234375q0.28125 0 0.5 0.09375q0.234375 0.09375 0.40625 0.28125q0.171875 0.171875 0.265625 0.40625q0.109375 0.21875 0.109375 0.484375q0 0.265625 -0.109375 0.5q-0.09375 0.234375 -0.265625 0.40625q-0.171875 0.171875 -0.40625 0.28125q-0.21875 0.09375 -0.5 0.09375q-0.265625 0 -0.5 -0.09375q-0.234375 -0.109375 -0.40625 -0.28125q-0.171875 -0.171875 -0.265625 -0.40625q-0.09375 -0.234375 -0.09375 -0.5q0 -0.265625 0.09375 -0.484375q0.09375 -0.234375 0.265625 -0.40625q0.171875 -0.1875 0.40625 -0.28125q0.234375 -0.09375 0.5 -0.09375zm6.522949 3.90625l1.4375 0l0.0625 1.5q0.40625 -0.484375 0.78125 -0.796875q0.390625 -0.328125 0.75 -0.515625q0.375 -0.203125 0.75 -0.28125q0.390625 -0.078125 0.796875 -0.078125q1.4375 0 2.171875 0.859375q0.734375 0.84375 0.734375 2.546875l0 6.078125l-1.609375 0l0 -5.953125q0 -1.09375 -0.40625 -1.609375q-0.40625 -0.53125 -1.21875 -0.53125q-0.296875 0 -0.578125 0.09375q-0.28125 0.09375 -0.59375 0.3125q-0.296875 0.203125 -0.65625 0.578125q-0.359375 0.375 -0.8125 0.9375l0 6.171875l-1.609375 0l0 -9.3125zm18.522888 -2.296875q-1.265625 -0.265625 -2.1875 -0.265625q-2.1875 0 -2.1875 2.28125l0 1.640625l4.09375 0l0 1.34375l-4.09375 0l0 6.609375l-1.640625 0l0 -6.609375l-2.984375 0l0 -1.34375l2.984375 0l0 -1.546875q0 -3.71875 3.875 -3.71875q0.96875 0 2.140625 0.21875l0 1.390625zm-9.75 2.296875l0 0zm19.851074 4.578125q0 1.09375 -0.3125 2.0q-0.296875 0.890625 -0.875 1.546875q-0.578125 0.640625 -1.40625 1.0q-0.828125 0.359375 -1.875 0.359375q-1.0 0 -1.796875 -0.3125q-0.78125 -0.3125 -1.34375 -0.90625q-0.546875 -0.609375 -0.84375 -1.5q-0.28125 -0.890625 -0.28125 -2.0625q0 -1.078125 0.296875 -1.96875q0.3125 -0.90625 0.875 -1.546875q0.578125 -0.640625 1.40625 -1.0q0.828125 -0.359375 1.875 -0.359375q1.0 0 1.796875 0.3125q0.796875 0.3125 1.34375 0.921875q0.5625 0.59375 0.84375 1.484375q0.296875 0.890625 0.296875 2.03125zm-1.65625 0.078125q0 -0.859375 -0.1875 -1.5q-0.1875 -0.65625 -0.546875 -1.078125q-0.34375 -0.4375 -0.859375 -0.65625q-0.5 -0.21875 -1.125 -0.21875q-0.71875 0 -1.234375 0.28125q-0.515625 0.28125 -0.84375 0.765625q-0.328125 0.46875 -0.484375 1.09375q-0.15625 0.625 -0.15625 1.3125q0 0.859375 0.1875 1.515625q0.203125 0.640625 0.546875 1.078125q0.359375 0.421875 0.859375 0.640625q0.5 0.21875 1.125 0.21875q0.734375 0 1.25 -0.28125q0.515625 -0.28125 0.84375 -0.75q0.328125 -0.46875 0.46875 -1.09375q0.15625 -0.640625 0.15625 -1.328125zm12.772888 8.453125l-10.453125 0l0 -1.328125l10.453125 0l0 1.328125zm9.163574 -8.953125q0 0.34375 -0.015625 0.578125q-0.015625 0.234375 -0.03125 0.4375l-6.53125 0q0 1.4375 0.796875 2.203125q0.796875 0.765625 2.296875 0.765625q0.40625 0 0.8125 -0.03125q0.40625 -0.046875 0.78125 -0.09375q0.390625 -0.0625 0.734375 -0.125q0.34375 -0.078125 0.640625 -0.15625l0 1.328125q-0.65625 0.1875 -1.484375 0.296875q-0.828125 0.125 -1.71875 0.125q-1.203125 0 -2.0625 -0.328125q-0.859375 -0.328125 -1.421875 -0.9375q-0.546875 -0.625 -0.8125 -1.515625q-0.265625 -0.890625 -0.265625 -2.03125q0 -0.984375 0.28125 -1.859375q0.296875 -0.875 0.828125 -1.53125q0.546875 -0.671875 1.328125 -1.0625q0.796875 -0.390625 1.796875 -0.390625q0.984375 0 1.734375 0.3125q0.75 0.296875 1.265625 0.859375q0.515625 0.5625 0.78125 1.375q0.265625 0.796875 0.265625 1.78125zm-1.6875 -0.21875q0.03125 -0.625 -0.125 -1.140625q-0.140625 -0.515625 -0.453125 -0.890625q-0.3125 -0.375 -0.78125 -0.578125q-0.453125 -0.203125 -1.078125 -0.203125q-0.515625 0 -0.953125 0.203125q-0.4375 0.203125 -0.765625 0.578125q-0.3125 0.359375 -0.5 0.890625q-0.1875 0.515625 -0.234375 1.140625l4.890625 0zm4.069763 -3.9375l1.4375 0l0.0625 1.5q0.40625 -0.484375 0.78125 -0.796875q0.390625 -0.328125 0.75 -0.515625q0.375 -0.203125 0.75 -0.28125q0.390625 -0.078125 0.796875 -0.078125q1.4375 0 2.171875 0.859375q0.734375 0.84375 0.734375 2.546875l0 6.078125l-1.609375 0l0 -5.953125q0 -1.09375 -0.40625 -1.609375q-0.40625 -0.53125 -1.21875 -0.53125q-0.296875 0 -0.578125 0.09375q-0.28125 0.09375 -0.59375 0.3125q-0.296875 0.203125 -0.65625 0.578125q-0.359375 0.375 -0.8125 0.9375l0 6.171875l-1.609375 0l0 -9.3125zm9.788574 4.84375q0 -1.1875 0.3125 -2.109375q0.328125 -0.921875 0.921875 -1.546875q0.609375 -0.640625 1.4375 -0.96875q0.84375 -0.328125 1.875 -0.328125q0.453125 0 0.875 0.0625q0.4375 0.046875 0.859375 0.171875l0 -3.921875l1.625 0l0 13.109375l-1.453125 0l-0.0625 -1.765625q-0.671875 0.984375 -1.46875 1.46875q-0.78125 0.46875 -1.703125 0.46875q-0.796875 0 -1.40625 -0.328125q-0.59375 -0.34375 -1.0 -0.953125q-0.40625 -0.609375 -0.609375 -1.453125q-0.203125 -0.859375 -0.203125 -1.90625zm1.640625 -0.09375q0 1.6875 0.5 2.515625q0.5 0.828125 1.40625 0.828125q0.609375 0 1.296875 -0.546875q0.6875 -0.546875 1.4375 -1.625l0 -4.3125q-0.40625 -0.1875 -0.890625 -0.28125q-0.484375 -0.109375 -0.953125 -0.109375q-1.3125 0 -2.0625 0.859375q-0.734375 0.84375 -0.734375 2.671875z" fill-rule="nonzero"></path><path fill="#000000" fill-opacity="0.0" d="m471.31497 420.00787l-152.62994 -109.5748" fill-rule="evenodd"></path><path stroke="#674ea7" stroke-width="3.0" stroke-linejoin="round" stroke-linecap="butt" d="m471.31497 420.00787l-144.27808 -103.57892" fill-rule="evenodd"></path><path fill="#674ea7" stroke="#674ea7" stroke-width="3.0" stroke-linecap="butt" d="m327.0369 316.42896l4.7081604 -0.7730713l-9.497345 -2.6651306l5.5622864 8.146362z" fill-rule="evenodd"></path><path fill="#000000" fill-opacity="0.0" d="m472.15747 420.85828l7.8425293 -110.4252" fill-rule="evenodd"></path><path stroke="#674ea7" stroke-width="3.0" stroke-linejoin="round" stroke-linecap="butt" d="m472.15747 420.85828l7.114197 -100.16977" fill-rule="evenodd"></path><path fill="#674ea7" stroke="#674ea7" stroke-width="3.0" stroke-linecap="butt" d="m479.27164 320.6885l3.1262817 3.6042786l-2.7086182 -9.485016l-4.021942 9.006989z" fill-rule="evenodd"></path><path fill="#000000" fill-opacity="0.0" d="m473.0315 420.00787l168.28345 -109.5748" fill-rule="evenodd"></path><path stroke="#674ea7" stroke-width="3.0" stroke-linejoin="round" stroke-linecap="butt" d="m473.0315 420.00787l159.66766 -103.96478" fill-rule="evenodd"></path><path fill="#674ea7" stroke="#674ea7" stroke-width="3.0" stroke-linecap="butt" d="m632.69916 316.0431l-0.9863281 4.668152l5.92688 -7.8851013l-9.608704 2.2306213z" fill-rule="evenodd"></path><path fill="#000000" fill-opacity="0.0" d="m437.2861 409.5643l74.456665 0l0 43.46457l-74.456665 0z" fill-rule="evenodd"></path><path fill="#674ea7" d="m447.30173 433.74783q0 -1.1875 0.3125 -2.109375q0.328125 -0.921875 0.921875 -1.546875q0.609375 -0.640625 1.4375 -0.96875q0.84375 -0.328125 1.875 -0.328125q0.453125 0 0.875 0.0625q0.4375 0.046875 0.859375 0.171875l0 -3.921875l1.625 0l0 13.109375l-1.453125 0l-0.0625 -1.765625q-0.671875 0.984375 -1.46875 1.46875q-0.78125 0.46875 -1.703125 0.46875q-0.796875 0 -1.40625 -0.328125q-0.59375 -0.34375 -1.0 -0.953125q-0.40625 -0.609375 -0.609375 -1.453125q-0.203125 -0.859375 -0.203125 -1.90625zm1.640625 -0.09375q0 1.6875 0.5 2.515625q0.5 0.828125 1.40625 0.828125q0.609375 0 1.296875 -0.546875q0.6875 -0.546875 1.4375 -1.625l0 -4.3125q-0.40625 -0.1875 -0.890625 -0.28125q-0.484375 -0.109375 -0.953125 -0.109375q-1.3125 0 -2.0625 0.859375q-0.734375 0.84375 -0.734375 2.671875zm16.960419 -0.59375q0 0.34375 -0.015625 0.578125q-0.015625 0.234375 -0.03125 0.4375l-6.53125 0q0 1.4375 0.796875 2.203125q0.796875 0.765625 2.296875 0.765625q0.40625 0 0.8125 -0.03125q0.40625 -0.046875 0.78125 -0.09375q0.390625 -0.0625 0.734375 -0.125q0.34375 -0.078125 0.640625 -0.15625l0 1.328125q-0.65625 0.1875 -1.484375 0.296875q-0.828125 0.125 -1.71875 0.125q-1.203125 0 -2.0625 -0.328125q-0.859375 -0.328125 -1.421875 -0.9375q-0.546875 -0.625 -0.8125 -1.515625q-0.265625 -0.890625 -0.265625 -2.03125q0 -0.984375 0.28125 -1.859375q0.296875 -0.875 0.828125 -1.53125q0.546875 -0.671875 1.328125 -1.0625q0.796875 -0.390625 1.796875 -0.390625q0.984375 0 1.734375 0.3125q0.75 0.296875 1.265625 0.859375q0.515625 0.5625 0.78125 1.375q0.265625 0.796875 0.265625 1.78125zm-1.6875 -0.21875q0.03125 -0.625 -0.125 -1.140625q-0.140625 -0.515625 -0.453125 -0.890625q-0.3125 -0.375 -0.78125 -0.578125q-0.453125 -0.203125 -1.078125 -0.203125q-0.515625 0 -0.953125 0.203125q-0.4375 0.203125 -0.765625 0.578125q-0.3125 0.359375 -0.5 0.890625q-0.1875 0.515625 -0.234375 1.140625l4.890625 0zm12.022919 0.546875q0 1.15625 -0.328125 2.078125q-0.3125 0.90625 -0.90625 1.546875q-0.578125 0.640625 -1.421875 0.984375q-0.84375 0.328125 -1.90625 0.328125q-0.828125 0 -1.6875 -0.15625q-0.859375 -0.15625 -1.703125 -0.5l0 -12.5625l1.609375 0l0 3.609375l-0.0625 1.71875q0.6875 -0.9375 1.484375 -1.3125q0.796875 -0.390625 1.703125 -0.390625q0.796875 0 1.390625 0.34375q0.609375 0.328125 1.015625 0.9375q0.40625 0.609375 0.609375 1.46875q0.203125 0.859375 0.203125 1.90625zm-1.640625 0.078125q0 -0.734375 -0.109375 -1.34375q-0.109375 -0.609375 -0.34375 -1.046875q-0.234375 -0.4375 -0.59375 -0.6875q-0.359375 -0.25 -0.859375 -0.25q-0.3125 0 -0.625 0.109375q-0.3125 0.09375 -0.65625 0.328125q-0.328125 0.21875 -0.703125 0.59375q-0.375 0.375 -0.8125 0.9375l0 4.515625q0.484375 0.1875 0.96875 0.296875q0.5 0.09375 0.9375 0.09375q0.5625 0 1.0625 -0.171875q0.5 -0.171875 0.890625 -0.578125q0.390625 -0.421875 0.609375 -1.09375q0.234375 -0.6875 0.234375 -1.703125zm11.429169 4.75l-1.4375 0l-0.0625 -1.5q-0.421875 0.484375 -0.796875 0.8125q-0.375 0.3125 -0.75 0.515625q-0.359375 0.1875 -0.734375 0.265625q-0.375 0.078125 -0.796875 0.078125q-1.4375 0 -2.171875 -0.84375q-0.734375 -0.84375 -0.734375 -2.5625l0 -6.078125l1.609375 0l0 5.953125q0 2.140625 1.625 2.140625q0.296875 0 0.578125 -0.078125q0.28125 -0.09375 0.59375 -0.3125q0.3125 -0.21875 0.65625 -0.578125q0.359375 -0.375 0.8125 -0.953125l0 -6.171875l1.609375 0l0 9.3125zm9.476044 -8.0q0.265625 0.328125 0.40625 0.765625q0.140625 0.421875 0.140625 0.921875q0 0.734375 -0.265625 1.328125q-0.265625 0.59375 -0.75 1.03125q-0.46875 0.421875 -1.140625 0.65625q-0.671875 0.234375 -1.484375 0.234375q-0.578125 0 -1.09375 -0.125q-0.515625 -0.125 -0.8125 -0.3125q-0.171875 0.265625 -0.296875 0.5q-0.109375 0.21875 -0.109375 0.515625q0 0.34375 0.328125 0.578125q0.34375 0.234375 0.90625 0.25l2.4375 0.09375q0.703125 0.015625 1.28125 0.1875q0.59375 0.15625 1.015625 0.453125q0.421875 0.296875 0.65625 0.734375q0.25 0.421875 0.25 1.0q0 0.625 -0.28125 1.171875q-0.265625 0.5625 -0.828125 0.984375q-0.5625 0.421875 -1.421875 0.671875q-0.859375 0.25 -2.046875 0.25q-1.140625 0 -1.9375 -0.1875q-0.78125 -0.171875 -1.296875 -0.5q-0.5 -0.3125 -0.734375 -0.75q-0.234375 -0.4375 -0.234375 -0.96875q0 -0.671875 0.3125 -1.1875q0.3125 -0.515625 0.96875 -0.984375q-0.234375 -0.109375 -0.421875 -0.265625q-0.171875 -0.171875 -0.28125 -0.375q-0.109375 -0.203125 -0.171875 -0.421875q-0.046875 -0.21875 -0.046875 -0.4375q0 -0.609375 0.28125 -1.109375q0.28125 -0.5 0.671875 -0.9375q-0.171875 -0.21875 -0.3125 -0.421875q-0.125 -0.203125 -0.234375 -0.4375q-0.09375 -0.234375 -0.140625 -0.5q-0.046875 -0.28125 -0.046875 -0.640625q0 -0.71875 0.25 -1.3125q0.265625 -0.609375 0.75 -1.03125q0.484375 -0.4375 1.15625 -0.671875q0.671875 -0.234375 1.484375 -0.234375q0.34375 0 0.65625 0.046875q0.3125 0.046875 0.5625 0.125l3.375 0l0 1.3125l-1.5 0zm-5.59375 9.34375q0 0.65625 0.6875 0.953125q0.6875 0.3125 1.90625 0.3125q0.765625 0 1.28125 -0.140625q0.53125 -0.140625 0.84375 -0.375q0.328125 -0.21875 0.46875 -0.515625q0.140625 -0.28125 0.140625 -0.59375q0 -0.5625 -0.46875 -0.84375q-0.453125 -0.265625 -1.40625 -0.3125l-2.4375 -0.078125q-0.3125 0.203125 -0.515625 0.390625q-0.1875 0.203125 -0.296875 0.40625q-0.109375 0.203125 -0.15625 0.390625q-0.046875 0.203125 -0.046875 0.40625zm0.484375 -7.609375q0 0.4375 0.140625 0.8125q0.15625 0.375 0.421875 0.640625q0.28125 0.25 0.640625 0.390625q0.359375 0.140625 0.8125 0.140625q0.484375 0 0.859375 -0.15625q0.375 -0.171875 0.625 -0.4375q0.265625 -0.28125 0.390625 -0.640625q0.140625 -0.359375 0.140625 -0.75q0 -0.453125 -0.15625 -0.8125q-0.140625 -0.375 -0.421875 -0.640625q-0.265625 -0.265625 -0.640625 -0.40625q-0.359375 -0.140625 -0.796875 -0.140625q-0.484375 0 -0.859375 0.171875q-0.375 0.15625 -0.640625 0.4375q-0.25 0.265625 -0.390625 0.640625q-0.125 0.359375 -0.125 0.75z" fill-rule="nonzero"></path></g></svg>

